<?xml version="1.0" encoding="UTF-8" standalone="no"?>
<!DOCTYPE svg PUBLIC "-//W3C//DTD SVG 1.1//EN"
 "http://www.w3.org/Graphics/SVG/1.1/DTD/svg11.dtd">
<!-- Generated by graphviz version 12.1.2 (20240928.0832)
 -->
<!-- Pages: 1 -->
<svg width="1570pt" height="918pt"
 viewBox="0.00 0.00 1569.50 918.10" xmlns="http://www.w3.org/2000/svg" xmlns:xlink="http://www.w3.org/1999/xlink">
<g id="graph0" class="graph" transform="scale(1 1) rotate(0) translate(4 914.1)">
<polygon fill="white" stroke="none" points="-4,4 -4,-914.1 1565.5,-914.1 1565.5,4 -4,4"/>
<g id="clust1" class="cluster">
<title>cluster_sequential_1sequential_1</title>
<path fill="#e0f3db" stroke="slategray" stroke-width="0.6" d="M20,-36.8C20,-36.8 1420,-36.8 1420,-36.8 1426,-36.8 1432,-42.8 1432,-48.8 1432,-48.8 1432,-890.1 1432,-890.1 1432,-896.1 1426,-902.1 1420,-902.1 1420,-902.1 20,-902.1 20,-902.1 14,-902.1 8,-896.1 8,-890.1 8,-890.1 8,-48.8 8,-48.8 8,-42.8 14,-36.8 20,-36.8"/>
<text text-anchor="middle" x="1358" y="-44.75" font-family="monospace" font-size="14.00"> &#160;&#160;&#160;sequential_1</text>
</g>
<g id="clust2" class="cluster">
<title>cluster_sequential_1/conv2d_1conv2d_1</title>
<path fill="#ccebc5" stroke="slategray" stroke-width="0.6" d="M28,-581.75C28,-581.75 468,-581.75 468,-581.75 474,-581.75 480,-587.75 480,-593.75 480,-593.75 480,-882.1 480,-882.1 480,-888.1 474,-894.1 468,-894.1 468,-894.1 28,-894.1 28,-894.1 22,-894.1 16,-888.1 16,-882.1 16,-882.1 16,-593.75 16,-593.75 16,-587.75 22,-581.75 28,-581.75"/>
<text text-anchor="middle" x="422.5" y="-589.7" font-family="monospace" font-size="14.00"> &#160;&#160;&#160;conv2d_1</text>
</g>
<g id="clust3" class="cluster">
<title>cluster_sequential_1/conv2d_1/ReshapeReshape</title>
<polygon fill="#a8ddb5" stroke="slategray" stroke-width="0.6" points="24,-712.6 24,-886.1 284,-886.1 284,-712.6 24,-712.6"/>
<text text-anchor="middle" x="230.62" y="-720.55" font-family="monospace" font-size="14.00"> &#160;&#160;&#160;Reshape</text>
</g>
<g id="clust4" class="cluster">
<title>cluster_sequential_1/conv2d_1/Reshape/ReadVariableOpReadVariableOp</title>
<polygon fill="#7bccc4" stroke="slategray" stroke-width="0.6" points="32,-761.05 32,-878.1 196,-878.1 196,-761.05 32,-761.05"/>
<text text-anchor="middle" x="113.75" y="-769" font-family="monospace" font-size="14.00"> &#160;&#160;&#160;ReadVariableOp</text>
</g>
<g id="clust5" class="cluster">
<title>cluster_sequential_1/conv2d_1/convolutionconvolution</title>
<polygon fill="#a8ddb5" stroke="slategray" stroke-width="0.6" points="292,-712.6 292,-886.1 472,-886.1 472,-712.6 292,-712.6"/>
<text text-anchor="middle" x="402.12" y="-720.55" font-family="monospace" font-size="14.00"> &#160;&#160;&#160;convolution</text>
</g>
<g id="clust6" class="cluster">
<title>cluster_sequential_1/conv2d_1/convolution/ReadVariableOpReadVariableOp</title>
<polygon fill="#7bccc4" stroke="slategray" stroke-width="0.6" points="300,-761.05 300,-878.1 464,-878.1 464,-761.05 300,-761.05"/>
<text text-anchor="middle" x="381.75" y="-769" font-family="monospace" font-size="14.00"> &#160;&#160;&#160;ReadVariableOp</text>
</g>
<g id="clust7" class="cluster">
<title>cluster_sequential_1/conv2d_1_2conv2d_1_2</title>
<path fill="#ccebc5" stroke="slategray" stroke-width="0.6" d="M500,-324.4C500,-324.4 940,-324.4 940,-324.4 946,-324.4 952,-330.4 952,-336.4 952,-336.4 952,-655.8 952,-655.8 952,-661.8 946,-667.8 940,-667.8 940,-667.8 500,-667.8 500,-667.8 494,-667.8 488,-661.8 488,-655.8 488,-655.8 488,-336.4 488,-336.4 488,-330.4 494,-324.4 500,-324.4"/>
<text text-anchor="middle" x="886.25" y="-332.35" font-family="monospace" font-size="14.00"> &#160;&#160;&#160;conv2d_1_2</text>
</g>
<g id="clust8" class="cluster">
<title>cluster_sequential_1/conv2d_1_2/ReshapeReshape</title>
<polygon fill="#a8ddb5" stroke="slategray" stroke-width="0.6" points="496,-455.25 496,-659.8 756,-659.8 756,-455.25 496,-455.25"/>
<text text-anchor="middle" x="702.62" y="-463.2" font-family="monospace" font-size="14.00"> &#160;&#160;&#160;Reshape</text>
</g>
<g id="clust9" class="cluster">
<title>cluster_sequential_1/conv2d_1_2/Reshape/ReadVariableOpReadVariableOp</title>
<polygon fill="#7bccc4" stroke="slategray" stroke-width="0.6" points="504,-514.5 504,-651.8 668,-651.8 668,-514.5 504,-514.5"/>
<text text-anchor="middle" x="585.75" y="-522.45" font-family="monospace" font-size="14.00"> &#160;&#160;&#160;ReadVariableOp</text>
</g>
<g id="clust10" class="cluster">
<title>cluster_sequential_1/conv2d_1_2/convolutionconvolution</title>
<polygon fill="#a8ddb5" stroke="slategray" stroke-width="0.6" points="764,-455.25 764,-659.8 944,-659.8 944,-455.25 764,-455.25"/>
<text text-anchor="middle" x="874.12" y="-463.2" font-family="monospace" font-size="14.00"> &#160;&#160;&#160;convolution</text>
</g>
<g id="clust11" class="cluster">
<title>cluster_sequential_1/conv2d_1_2/convolution/ReadVariableOpReadVariableOp</title>
<polygon fill="#7bccc4" stroke="slategray" stroke-width="0.6" points="772,-514.5 772,-651.8 936,-651.8 936,-514.5 772,-514.5"/>
<text text-anchor="middle" x="853.75" y="-522.45" font-family="monospace" font-size="14.00"> &#160;&#160;&#160;ReadVariableOp</text>
</g>
<g id="clust12" class="cluster">
<title>cluster_sequential_1/conv2d_2_1conv2d_2_1</title>
<path fill="#ccebc5" stroke="slategray" stroke-width="0.6" d="M972,-70.05C972,-70.05 1412,-70.05 1412,-70.05 1418,-70.05 1424,-76.05 1424,-82.05 1424,-82.05 1424,-398.45 1424,-398.45 1424,-404.45 1418,-410.45 1412,-410.45 1412,-410.45 972,-410.45 972,-410.45 966,-410.45 960,-404.45 960,-398.45 960,-398.45 960,-82.05 960,-82.05 960,-76.05 966,-70.05 972,-70.05"/>
<text text-anchor="middle" x="1358.25" y="-78" font-family="monospace" font-size="14.00"> &#160;&#160;&#160;conv2d_2_1</text>
</g>
<g id="clust13" class="cluster">
<title>cluster_sequential_1/conv2d_2_1/ReshapeReshape</title>
<polygon fill="#a8ddb5" stroke="slategray" stroke-width="0.6" points="968,-197.9 968,-402.45 1228,-402.45 1228,-197.9 968,-197.9"/>
<text text-anchor="middle" x="1174.62" y="-205.85" font-family="monospace" font-size="14.00"> &#160;&#160;&#160;Reshape</text>
</g>
<g id="clust14" class="cluster">
<title>cluster_sequential_1/conv2d_2_1/Reshape/ReadVariableOpReadVariableOp</title>
<polygon fill="#7bccc4" stroke="slategray" stroke-width="0.6" points="976,-257.15 976,-394.45 1140,-394.45 1140,-257.15 976,-257.15"/>
<text text-anchor="middle" x="1057.75" y="-265.1" font-family="monospace" font-size="14.00"> &#160;&#160;&#160;ReadVariableOp</text>
</g>
<g id="clust15" class="cluster">
<title>cluster_sequential_1/conv2d_2_1/convolutionconvolution</title>
<polygon fill="#a8ddb5" stroke="slategray" stroke-width="0.6" points="1236,-197.9 1236,-402.45 1416,-402.45 1416,-197.9 1236,-197.9"/>
<text text-anchor="middle" x="1346.12" y="-205.85" font-family="monospace" font-size="14.00"> &#160;&#160;&#160;convolution</text>
</g>
<g id="clust16" class="cluster">
<title>cluster_sequential_1/conv2d_2_1/convolution/ReadVariableOpReadVariableOp</title>
<polygon fill="#7bccc4" stroke="slategray" stroke-width="0.6" points="1244,-257.15 1244,-394.45 1408,-394.45 1408,-257.15 1244,-257.15"/>
<text text-anchor="middle" x="1325.75" y="-265.1" font-family="monospace" font-size="14.00"> &#160;&#160;&#160;ReadVariableOp</text>
</g>
<g id="clust17" class="cluster">
<title>cluster_sequential_1/max_pooling2d_1max_pooling2d_1</title>
<path fill="#ccebc5" stroke="slategray" stroke-width="0.6" d="M320,-503.7C320,-503.7 468,-503.7 468,-503.7 474,-503.7 480,-509.7 480,-515.7 480,-515.7 480,-561.75 480,-561.75 480,-567.75 474,-573.75 468,-573.75 468,-573.75 320,-573.75 320,-573.75 314,-573.75 308,-567.75 308,-561.75 308,-561.75 308,-515.7 308,-515.7 308,-509.7 314,-503.7 320,-503.7"/>
<text text-anchor="middle" x="393.62" y="-511.65" font-family="monospace" font-size="14.00"> &#160;&#160;&#160;max_pooling2d_1</text>
</g>
<g id="clust18" class="cluster">
<title>cluster_sequential_1/max_pooling2d_1_2max_pooling2d_1_2</title>
<path fill="#ccebc5" stroke="slategray" stroke-width="0.6" d="M757,-246.35C757,-246.35 922,-246.35 922,-246.35 928,-246.35 934,-252.35 934,-258.35 934,-258.35 934,-304.4 934,-304.4 934,-310.4 928,-316.4 922,-316.4 922,-316.4 757,-316.4 757,-316.4 751,-316.4 745,-310.4 745,-304.4 745,-304.4 745,-258.35 745,-258.35 745,-252.35 751,-246.35 757,-246.35"/>
<text text-anchor="middle" x="839.38" y="-254.3" font-family="monospace" font-size="14.00"> &#160;&#160;&#160;max_pooling2d_1_2</text>
</g>
<!-- Identity -->
<g id="node1" class="node">
<title>Identity</title>
<polygon fill="#c1ffc1" stroke="black" points="1266,-28.8 1190,-28.8 1190,0 1266,0 1266,-28.8"/>
<text text-anchor="middle" x="1228" y="-10.12" font-family="monospace" font-size="12.00">Identity</text>
</g>
<!-- model_inputs_0 -->
<g id="node2" class="node">
<title>model_inputs_0</title>
<polygon fill="lightblue" stroke="black" points="1561.5,-812.3 1440.5,-812.3 1440.5,-783.5 1561.5,-783.5 1561.5,-812.3"/>
<text text-anchor="middle" x="1501" y="-793.62" font-family="monospace" font-size="12.00">model_inputs_0</text>
</g>
<!-- sequential_1/conv2d_1/convolution -->
<g id="node9" class="node">
<title>sequential_1/conv2d_1/convolution</title>
<polygon fill="none" stroke="none" points="448.8,-753.05 391.2,-753.05 391.2,-745.85 448.8,-745.85 448.8,-753.05"/>
</g>
<!-- model_inputs_0&#45;&gt;sequential_1/conv2d_1/convolution -->
<g id="edge8" class="edge">
<title>model_inputs_0&#45;&gt;sequential_1/conv2d_1/convolution</title>
<path fill="none" stroke="black" d="M1440.17,-794.29C1242.79,-785.81 623.47,-759.19 459.93,-752.17"/>
<polygon fill="black" stroke="black" points="460.17,-748.67 450.03,-751.74 459.87,-755.67 460.17,-748.67"/>
</g>
<!-- sequential_1/conv2d_1/Relu -->
<g id="node3" class="node">
<title>sequential_1/conv2d_1/Relu</title>
<polygon fill="#c1ffc1" stroke="black" points="462,-643.8 390,-643.8 390,-615 462,-615 462,-643.8"/>
<text text-anchor="middle" x="426" y="-625.12" font-family="monospace" font-size="12.00">Relu</text>
</g>
<!-- sequential_1/max_pooling2d_1/MaxPool2d -->
<g id="node30" class="node">
<title>sequential_1/max_pooling2d_1/MaxPool2d</title>
<polygon fill="#c1ffc1" stroke="black" points="470.75,-565.75 387.25,-565.75 387.25,-536.95 470.75,-536.95 470.75,-565.75"/>
<text text-anchor="middle" x="429" y="-547.08" font-family="monospace" font-size="12.00">MaxPool2d</text>
</g>
<!-- sequential_1/conv2d_1/Relu&#45;&gt;sequential_1/max_pooling2d_1/MaxPool2d -->
<g id="edge29" class="edge">
<title>sequential_1/conv2d_1/Relu&#45;&gt;sequential_1/max_pooling2d_1/MaxPool2d</title>
<path fill="none" stroke="black" d="M426.54,-614.8C426.94,-604.49 427.51,-590.01 428,-577.59"/>
<polygon fill="black" stroke="black" points="431.5,-577.73 428.4,-567.6 424.51,-577.45 431.5,-577.73"/>
</g>
<!-- sequential_1/conv2d_1/Reshape -->
<g id="node4" class="node">
<title>sequential_1/conv2d_1/Reshape</title>
<polygon fill="none" stroke="none" points="268.8,-753.05 211.2,-753.05 211.2,-745.85 268.8,-745.85 268.8,-753.05"/>
</g>
<!-- sequential_1/conv2d_1/add -->
<g id="node8" class="node">
<title>sequential_1/conv2d_1/add</title>
<polygon fill="#c1ffc1" stroke="black" points="456,-704.6 384,-704.6 384,-675.8 456,-675.8 456,-704.6"/>
<text text-anchor="middle" x="420" y="-685.92" font-family="monospace" font-size="12.00">add</text>
</g>
<!-- sequential_1/conv2d_1/Reshape&#45;&gt;sequential_1/conv2d_1/add -->
<g id="edge7" class="edge">
<title>sequential_1/conv2d_1/Reshape&#45;&gt;sequential_1/conv2d_1/add</title>
<path fill="none" stroke="black" d="M241.72,-746.01C246.55,-739.36 261.04,-720.86 278,-712.6 307.26,-698.36 343.59,-693.08 372.18,-691.32"/>
<polygon fill="black" stroke="black" points="372.19,-694.82 382.01,-690.85 371.85,-687.83 372.19,-694.82"/>
</g>
<!-- sequential_1/conv2d_1/Reshape/ReadVariableOp -->
<g id="node5" class="node">
<title>sequential_1/conv2d_1/Reshape/ReadVariableOp</title>
<polygon fill="none" stroke="none" points="145.8,-801.5 88.2,-801.5 88.2,-794.3 145.8,-794.3 145.8,-801.5"/>
</g>
<!-- sequential_1/conv2d_1/Reshape/ReadVariableOp&#45;&gt;sequential_1/conv2d_1/Reshape -->
<g id="edge3" class="edge">
<title>sequential_1/conv2d_1/Reshape/ReadVariableOp&#45;&gt;sequential_1/conv2d_1/Reshape</title>
<path fill="none" stroke="black" d="M118.39,-794.44C122.34,-787.72 134.33,-769.05 150,-761.05 158.73,-756.6 180.27,-753.97 200.09,-752.44"/>
<polygon fill="black" stroke="black" points="200.2,-755.94 209.94,-751.77 199.72,-748.96 200.2,-755.94"/>
</g>
<!-- sequential_1/conv2d_1/Reshape/ReadVariableOp/resource -->
<g id="node6" class="node">
<title>sequential_1/conv2d_1/Reshape/ReadVariableOp/resource</title>
<polygon fill="lightblue" stroke="black" points="155,-870.1 79,-870.1 79,-841.3 155,-841.3 155,-870.1"/>
<text text-anchor="middle" x="117" y="-851.42" font-family="monospace" font-size="12.00">resource</text>
</g>
<!-- sequential_1/conv2d_1/Reshape/ReadVariableOp/resource&#45;&gt;sequential_1/conv2d_1/Reshape/ReadVariableOp -->
<g id="edge5" class="edge">
<title>sequential_1/conv2d_1/Reshape/ReadVariableOp/resource&#45;&gt;sequential_1/conv2d_1/Reshape/ReadVariableOp</title>
<path fill="none" stroke="black" d="M117,-840.91C117,-832.31 117,-821.28 117,-812.68"/>
<polygon fill="black" stroke="black" points="120.5,-812.87 117,-802.87 113.5,-812.87 120.5,-812.87"/>
</g>
<!-- sequential_1/conv2d_1/Reshape/shape -->
<g id="node7" class="node">
<title>sequential_1/conv2d_1/Reshape/shape</title>
<polygon fill="none" stroke="black" stroke-dasharray="5,2" points="276,-812.3 204,-812.3 204,-783.5 276,-783.5 276,-812.3"/>
<text text-anchor="middle" x="240" y="-793.62" font-family="monospace" font-size="12.00">shape</text>
</g>
<!-- sequential_1/conv2d_1/Reshape/shape&#45;&gt;sequential_1/conv2d_1/Reshape -->
<g id="edge4" class="edge">
<title>sequential_1/conv2d_1/Reshape/shape&#45;&gt;sequential_1/conv2d_1/Reshape</title>
<path fill="none" stroke="black" d="M240,-783.21C240,-777.28 240,-770.33 240,-764.37"/>
<polygon fill="black" stroke="black" points="243.5,-764.44 240,-754.44 236.5,-764.44 243.5,-764.44"/>
</g>
<!-- sequential_1/conv2d_1/add&#45;&gt;sequential_1/conv2d_1/Relu -->
<g id="edge2" class="edge">
<title>sequential_1/conv2d_1/add&#45;&gt;sequential_1/conv2d_1/Relu</title>
<path fill="none" stroke="black" d="M421.39,-675.56C422,-669.55 422.75,-662.29 423.45,-655.37"/>
<polygon fill="black" stroke="black" points="426.93,-655.77 424.46,-645.47 419.97,-655.06 426.93,-655.77"/>
</g>
<!-- sequential_1/conv2d_1/convolution&#45;&gt;sequential_1/conv2d_1/add -->
<g id="edge6" class="edge">
<title>sequential_1/conv2d_1/convolution&#45;&gt;sequential_1/conv2d_1/add</title>
<path fill="none" stroke="black" d="M420,-745.99C420,-740.76 420,-728.03 420,-716.15"/>
<polygon fill="black" stroke="black" points="423.5,-716.39 420,-706.39 416.5,-716.39 423.5,-716.39"/>
</g>
<!-- sequential_1/conv2d_1/convolution/ReadVariableOp -->
<g id="node10" class="node">
<title>sequential_1/conv2d_1/convolution/ReadVariableOp</title>
<polygon fill="none" stroke="none" points="447.8,-801.5 390.2,-801.5 390.2,-794.3 447.8,-794.3 447.8,-801.5"/>
</g>
<!-- sequential_1/conv2d_1/convolution/ReadVariableOp&#45;&gt;sequential_1/conv2d_1/convolution -->
<g id="edge9" class="edge">
<title>sequential_1/conv2d_1/convolution/ReadVariableOp&#45;&gt;sequential_1/conv2d_1/convolution</title>
<path fill="none" stroke="black" d="M419.05,-794.4C419.17,-788.81 419.47,-774.91 419.7,-764.23"/>
<polygon fill="black" stroke="black" points="423.2,-764.32 419.92,-754.25 416.2,-764.17 423.2,-764.32"/>
</g>
<!-- sequential_1/conv2d_1/convolution/ReadVariableOp/resource -->
<g id="node11" class="node">
<title>sequential_1/conv2d_1/convolution/ReadVariableOp/resource</title>
<polygon fill="lightblue" stroke="black" points="456,-870.1 380,-870.1 380,-841.3 456,-841.3 456,-870.1"/>
<text text-anchor="middle" x="418" y="-851.42" font-family="monospace" font-size="12.00">resource</text>
</g>
<!-- sequential_1/conv2d_1/convolution/ReadVariableOp/resource&#45;&gt;sequential_1/conv2d_1/convolution/ReadVariableOp -->
<g id="edge10" class="edge">
<title>sequential_1/conv2d_1/convolution/ReadVariableOp/resource&#45;&gt;sequential_1/conv2d_1/convolution/ReadVariableOp</title>
<path fill="none" stroke="black" d="M418.25,-840.91C418.4,-832.31 418.6,-821.28 418.75,-812.68"/>
<polygon fill="black" stroke="black" points="422.25,-812.94 418.93,-802.87 415.25,-812.81 422.25,-812.94"/>
</g>
<!-- sequential_1/conv2d_1_2/Relu -->
<g id="node12" class="node">
<title>sequential_1/conv2d_1_2/Relu</title>
<polygon fill="#c1ffc1" stroke="black" points="904,-386.45 832,-386.45 832,-357.65 904,-357.65 904,-386.45"/>
<text text-anchor="middle" x="868" y="-367.78" font-family="monospace" font-size="12.00">Relu</text>
</g>
<!-- sequential_1/max_pooling2d_1_2/MaxPool2d -->
<g id="node31" class="node">
<title>sequential_1/max_pooling2d_1_2/MaxPool2d</title>
<polygon fill="#c1ffc1" stroke="black" points="918.75,-308.4 835.25,-308.4 835.25,-279.6 918.75,-279.6 918.75,-308.4"/>
<text text-anchor="middle" x="877" y="-289.73" font-family="monospace" font-size="12.00">MaxPool2d</text>
</g>
<!-- sequential_1/conv2d_1_2/Relu&#45;&gt;sequential_1/max_pooling2d_1_2/MaxPool2d -->
<g id="edge30" class="edge">
<title>sequential_1/conv2d_1_2/Relu&#45;&gt;sequential_1/max_pooling2d_1_2/MaxPool2d</title>
<path fill="none" stroke="black" d="M869.61,-357.45C870.84,-347.03 872.58,-332.35 874.06,-319.85"/>
<polygon fill="black" stroke="black" points="877.5,-320.58 875.2,-310.24 870.55,-319.76 877.5,-320.58"/>
</g>
<!-- sequential_1/conv2d_1_2/Reshape -->
<g id="node13" class="node">
<title>sequential_1/conv2d_1_2/Reshape</title>
<polygon fill="none" stroke="none" points="740.8,-495.7 683.2,-495.7 683.2,-488.5 740.8,-488.5 740.8,-495.7"/>
</g>
<!-- sequential_1/conv2d_1_2/add -->
<g id="node17" class="node">
<title>sequential_1/conv2d_1_2/add</title>
<polygon fill="#c1ffc1" stroke="black" points="867,-447.25 795,-447.25 795,-418.45 867,-418.45 867,-447.25"/>
<text text-anchor="middle" x="831" y="-428.58" font-family="monospace" font-size="12.00">add</text>
</g>
<!-- sequential_1/conv2d_1_2/Reshape&#45;&gt;sequential_1/conv2d_1_2/add -->
<g id="edge16" class="edge">
<title>sequential_1/conv2d_1_2/Reshape&#45;&gt;sequential_1/conv2d_1_2/add</title>
<path fill="none" stroke="black" d="M713.77,-488.76C718.73,-482.35 733.51,-464.41 750,-455.25 760.4,-449.47 772.44,-445.19 783.99,-442.06"/>
<polygon fill="black" stroke="black" points="784.51,-445.53 793.38,-439.75 782.84,-438.74 784.51,-445.53"/>
</g>
<!-- sequential_1/conv2d_1_2/Reshape/ReadVariableOp -->
<g id="node14" class="node">
<title>sequential_1/conv2d_1_2/Reshape/ReadVariableOp</title>
<polygon fill="none" stroke="none" points="617.8,-554.95 560.2,-554.95 560.2,-547.75 617.8,-547.75 617.8,-554.95"/>
</g>
<!-- sequential_1/conv2d_1_2/Reshape/ReadVariableOp&#45;&gt;sequential_1/conv2d_1_2/Reshape -->
<g id="edge12" class="edge">
<title>sequential_1/conv2d_1_2/Reshape/ReadVariableOp&#45;&gt;sequential_1/conv2d_1_2/Reshape</title>
<path fill="none" stroke="black" d="M589.82,-548.09C592.75,-540.33 603.58,-514.65 622,-503.7 630.42,-498.69 651.95,-496.05 671.85,-494.66"/>
<polygon fill="black" stroke="black" points="671.97,-498.15 681.74,-494.06 671.55,-491.17 671.97,-498.15"/>
</g>
<!-- sequential_1/conv2d_1_2/Reshape/ReadVariableOp/resource -->
<g id="node15" class="node">
<title>sequential_1/conv2d_1_2/Reshape/ReadVariableOp/resource</title>
<polygon fill="lightblue" stroke="black" points="627,-643.8 551,-643.8 551,-615 627,-615 627,-643.8"/>
<text text-anchor="middle" x="589" y="-625.12" font-family="monospace" font-size="12.00">resource</text>
</g>
<!-- sequential_1/conv2d_1_2/Reshape/ReadVariableOp/resource&#45;&gt;sequential_1/conv2d_1_2/Reshape/ReadVariableOp -->
<g id="edge14" class="edge">
<title>sequential_1/conv2d_1_2/Reshape/ReadVariableOp/resource&#45;&gt;sequential_1/conv2d_1_2/Reshape/ReadVariableOp</title>
<path fill="none" stroke="black" d="M589,-614.8C589,-601.12 589,-580.13 589,-566.32"/>
<polygon fill="black" stroke="black" points="592.5,-566.35 589,-556.35 585.5,-566.35 592.5,-566.35"/>
</g>
<!-- sequential_1/conv2d_1_2/Reshape/shape -->
<g id="node16" class="node">
<title>sequential_1/conv2d_1_2/Reshape/shape</title>
<polygon fill="none" stroke="black" stroke-dasharray="5,2" points="748,-565.75 676,-565.75 676,-536.95 748,-536.95 748,-565.75"/>
<text text-anchor="middle" x="712" y="-547.08" font-family="monospace" font-size="12.00">shape</text>
</g>
<!-- sequential_1/conv2d_1_2/Reshape/shape&#45;&gt;sequential_1/conv2d_1_2/Reshape -->
<g id="edge13" class="edge">
<title>sequential_1/conv2d_1_2/Reshape/shape&#45;&gt;sequential_1/conv2d_1_2/Reshape</title>
<path fill="none" stroke="black" d="M712,-536.49C712,-527.56 712,-516 712,-507.05"/>
<polygon fill="black" stroke="black" points="715.5,-507.17 712,-497.17 708.5,-507.17 715.5,-507.17"/>
</g>
<!-- sequential_1/conv2d_1_2/add&#45;&gt;sequential_1/conv2d_1_2/Relu -->
<g id="edge11" class="edge">
<title>sequential_1/conv2d_1_2/add&#45;&gt;sequential_1/conv2d_1_2/Relu</title>
<path fill="none" stroke="black" d="M839.58,-418.21C843.69,-411.68 848.73,-403.68 853.41,-396.23"/>
<polygon fill="black" stroke="black" points="856.3,-398.22 858.66,-387.89 850.37,-394.49 856.3,-398.22"/>
</g>
<!-- sequential_1/conv2d_1_2/convolution -->
<g id="node18" class="node">
<title>sequential_1/conv2d_1_2/convolution</title>
<polygon fill="none" stroke="none" points="859.8,-495.7 802.2,-495.7 802.2,-488.5 859.8,-488.5 859.8,-495.7"/>
</g>
<!-- sequential_1/conv2d_1_2/convolution&#45;&gt;sequential_1/conv2d_1_2/add -->
<g id="edge15" class="edge">
<title>sequential_1/conv2d_1_2/convolution&#45;&gt;sequential_1/conv2d_1_2/add</title>
<path fill="none" stroke="black" d="M831,-488.64C831,-483.41 831,-470.68 831,-458.8"/>
<polygon fill="black" stroke="black" points="834.5,-459.04 831,-449.04 827.5,-459.04 834.5,-459.04"/>
</g>
<!-- sequential_1/conv2d_1_2/convolution/ReadVariableOp -->
<g id="node19" class="node">
<title>sequential_1/conv2d_1_2/convolution/ReadVariableOp</title>
<polygon fill="none" stroke="none" points="863.8,-554.95 806.2,-554.95 806.2,-547.75 863.8,-547.75 863.8,-554.95"/>
</g>
<!-- sequential_1/conv2d_1_2/convolution/ReadVariableOp&#45;&gt;sequential_1/conv2d_1_2/convolution -->
<g id="edge18" class="edge">
<title>sequential_1/conv2d_1_2/convolution/ReadVariableOp&#45;&gt;sequential_1/conv2d_1_2/convolution</title>
<path fill="none" stroke="black" d="M834.83,-547.89C834.34,-540.9 832.92,-520.54 831.95,-506.7"/>
<polygon fill="black" stroke="black" points="835.46,-506.73 831.27,-497 828.48,-507.22 835.46,-506.73"/>
</g>
<!-- sequential_1/conv2d_1_2/convolution/ReadVariableOp/resource -->
<g id="node20" class="node">
<title>sequential_1/conv2d_1_2/convolution/ReadVariableOp/resource</title>
<polygon fill="lightblue" stroke="black" points="873,-643.8 797,-643.8 797,-615 873,-615 873,-643.8"/>
<text text-anchor="middle" x="835" y="-625.12" font-family="monospace" font-size="12.00">resource</text>
</g>
<!-- sequential_1/conv2d_1_2/convolution/ReadVariableOp/resource&#45;&gt;sequential_1/conv2d_1_2/convolution/ReadVariableOp -->
<g id="edge19" class="edge">
<title>sequential_1/conv2d_1_2/convolution/ReadVariableOp/resource&#45;&gt;sequential_1/conv2d_1_2/convolution/ReadVariableOp</title>
<path fill="none" stroke="black" d="M835,-614.8C835,-601.12 835,-580.13 835,-566.32"/>
<polygon fill="black" stroke="black" points="838.5,-566.35 835,-556.35 831.5,-566.35 838.5,-566.35"/>
</g>
<!-- sequential_1/conv2d_2_1/Relu -->
<g id="node21" class="node">
<title>sequential_1/conv2d_2_1/Relu</title>
<polygon fill="#c1ffc1" stroke="black" points="1264,-132.1 1192,-132.1 1192,-103.3 1264,-103.3 1264,-132.1"/>
<text text-anchor="middle" x="1228" y="-113.43" font-family="monospace" font-size="12.00">Relu</text>
</g>
<!-- sequential_1/conv2d_2_1/Relu&#45;&gt;Identity -->
<g id="edge1" class="edge">
<title>sequential_1/conv2d_2_1/Relu&#45;&gt;Identity</title>
<path fill="none" stroke="black" d="M1228,-103.04C1228,-87.03 1228,-60.17 1228,-40.4"/>
<polygon fill="black" stroke="black" points="1231.5,-40.68 1228,-30.68 1224.5,-40.68 1231.5,-40.68"/>
</g>
<!-- sequential_1/conv2d_2_1/Reshape -->
<g id="node22" class="node">
<title>sequential_1/conv2d_2_1/Reshape</title>
<polygon fill="none" stroke="none" points="1198.8,-238.35 1141.2,-238.35 1141.2,-231.15 1198.8,-231.15 1198.8,-238.35"/>
</g>
<!-- sequential_1/conv2d_2_1/add -->
<g id="node26" class="node">
<title>sequential_1/conv2d_2_1/add</title>
<polygon fill="#c1ffc1" stroke="black" points="1264,-189.9 1192,-189.9 1192,-161.1 1264,-161.1 1264,-189.9"/>
<text text-anchor="middle" x="1228" y="-171.22" font-family="monospace" font-size="12.00">add</text>
</g>
<!-- sequential_1/conv2d_2_1/Reshape&#45;&gt;sequential_1/conv2d_2_1/add -->
<g id="edge25" class="edge">
<title>sequential_1/conv2d_2_1/Reshape&#45;&gt;sequential_1/conv2d_2_1/add</title>
<path fill="none" stroke="black" d="M1172.49,-231.29C1178.29,-225.57 1193.17,-210.87 1206.07,-198.14"/>
<polygon fill="black" stroke="black" points="1208.41,-200.76 1213.07,-191.24 1203.49,-195.77 1208.41,-200.76"/>
</g>
<!-- sequential_1/conv2d_2_1/Reshape/ReadVariableOp -->
<g id="node23" class="node">
<title>sequential_1/conv2d_2_1/Reshape/ReadVariableOp</title>
<polygon fill="none" stroke="none" points="1089.8,-297.6 1032.2,-297.6 1032.2,-290.4 1089.8,-290.4 1089.8,-297.6"/>
</g>
<!-- sequential_1/conv2d_2_1/Reshape/ReadVariableOp&#45;&gt;sequential_1/conv2d_2_1/Reshape -->
<g id="edge21" class="edge">
<title>sequential_1/conv2d_2_1/Reshape/ReadVariableOp&#45;&gt;sequential_1/conv2d_2_1/Reshape</title>
<path fill="none" stroke="black" d="M1061.82,-290.76C1064.79,-283.04 1075.7,-257.49 1094,-246.35 1100.26,-242.54 1115.16,-240.05 1130.13,-238.44"/>
<polygon fill="black" stroke="black" points="1130.31,-241.94 1139.94,-237.52 1129.66,-234.97 1130.31,-241.94"/>
</g>
<!-- sequential_1/conv2d_2_1/Reshape/ReadVariableOp/resource -->
<g id="node24" class="node">
<title>sequential_1/conv2d_2_1/Reshape/ReadVariableOp/resource</title>
<polygon fill="lightblue" stroke="black" points="1099,-386.45 1023,-386.45 1023,-357.65 1099,-357.65 1099,-386.45"/>
<text text-anchor="middle" x="1061" y="-367.78" font-family="monospace" font-size="12.00">resource</text>
</g>
<!-- sequential_1/conv2d_2_1/Reshape/ReadVariableOp/resource&#45;&gt;sequential_1/conv2d_2_1/Reshape/ReadVariableOp -->
<g id="edge23" class="edge">
<title>sequential_1/conv2d_2_1/Reshape/ReadVariableOp/resource&#45;&gt;sequential_1/conv2d_2_1/Reshape/ReadVariableOp</title>
<path fill="none" stroke="black" d="M1061,-357.45C1061,-343.77 1061,-322.78 1061,-308.97"/>
<polygon fill="black" stroke="black" points="1064.5,-309 1061,-299 1057.5,-309 1064.5,-309"/>
</g>
<!-- sequential_1/conv2d_2_1/Reshape/shape -->
<g id="node25" class="node">
<title>sequential_1/conv2d_2_1/Reshape/shape</title>
<polygon fill="none" stroke="black" stroke-dasharray="5,2" points="1220,-308.4 1148,-308.4 1148,-279.6 1220,-279.6 1220,-308.4"/>
<text text-anchor="middle" x="1184" y="-289.73" font-family="monospace" font-size="12.00">shape</text>
</g>
<!-- sequential_1/conv2d_2_1/Reshape/shape&#45;&gt;sequential_1/conv2d_2_1/Reshape -->
<g id="edge22" class="edge">
<title>sequential_1/conv2d_2_1/Reshape/shape&#45;&gt;sequential_1/conv2d_2_1/Reshape</title>
<path fill="none" stroke="black" d="M1180.61,-279.14C1178.4,-270.11 1175.53,-258.37 1173.33,-249.38"/>
<polygon fill="black" stroke="black" points="1176.76,-248.66 1170.98,-239.77 1169.96,-250.32 1176.76,-248.66"/>
</g>
<!-- sequential_1/conv2d_2_1/add&#45;&gt;sequential_1/conv2d_2_1/Relu -->
<g id="edge20" class="edge">
<title>sequential_1/conv2d_2_1/add&#45;&gt;sequential_1/conv2d_2_1/Relu</title>
<path fill="none" stroke="black" d="M1228,-160.71C1228,-155.57 1228,-149.57 1228,-143.74"/>
<polygon fill="black" stroke="black" points="1231.5,-143.85 1228,-133.85 1224.5,-143.85 1231.5,-143.85"/>
</g>
<!-- sequential_1/conv2d_2_1/convolution -->
<g id="node27" class="node">
<title>sequential_1/conv2d_2_1/convolution</title>
<polygon fill="none" stroke="none" points="1314.8,-238.35 1257.2,-238.35 1257.2,-231.15 1314.8,-231.15 1314.8,-238.35"/>
</g>
<!-- sequential_1/conv2d_2_1/convolution&#45;&gt;sequential_1/conv2d_2_1/add -->
<g id="edge24" class="edge">
<title>sequential_1/conv2d_2_1/convolution&#45;&gt;sequential_1/conv2d_2_1/add</title>
<path fill="none" stroke="black" d="M1283.51,-231.29C1277.71,-225.57 1262.83,-210.87 1249.93,-198.14"/>
<polygon fill="black" stroke="black" points="1252.51,-195.77 1242.93,-191.24 1247.59,-200.76 1252.51,-195.77"/>
</g>
<!-- sequential_1/conv2d_2_1/convolution/ReadVariableOp -->
<g id="node28" class="node">
<title>sequential_1/conv2d_2_1/convolution/ReadVariableOp</title>
<polygon fill="none" stroke="none" points="1335.8,-297.6 1278.2,-297.6 1278.2,-290.4 1335.8,-290.4 1335.8,-297.6"/>
</g>
<!-- sequential_1/conv2d_2_1/convolution/ReadVariableOp&#45;&gt;sequential_1/conv2d_2_1/convolution -->
<g id="edge27" class="edge">
<title>sequential_1/conv2d_2_1/convolution/ReadVariableOp&#45;&gt;sequential_1/conv2d_2_1/convolution</title>
<path fill="none" stroke="black" d="M1306.1,-290.54C1303.51,-283.48 1295.91,-262.76 1290.83,-248.92"/>
<polygon fill="black" stroke="black" points="1294.13,-247.74 1287.4,-239.56 1287.55,-250.15 1294.13,-247.74"/>
</g>
<!-- sequential_1/conv2d_2_1/convolution/ReadVariableOp/resource -->
<g id="node29" class="node">
<title>sequential_1/conv2d_2_1/convolution/ReadVariableOp/resource</title>
<polygon fill="lightblue" stroke="black" points="1345,-386.45 1269,-386.45 1269,-357.65 1345,-357.65 1345,-386.45"/>
<text text-anchor="middle" x="1307" y="-367.78" font-family="monospace" font-size="12.00">resource</text>
</g>
<!-- sequential_1/conv2d_2_1/convolution/ReadVariableOp/resource&#45;&gt;sequential_1/conv2d_2_1/convolution/ReadVariableOp -->
<g id="edge28" class="edge">
<title>sequential_1/conv2d_2_1/convolution/ReadVariableOp/resource&#45;&gt;sequential_1/conv2d_2_1/convolution/ReadVariableOp</title>
<path fill="none" stroke="black" d="M1307,-357.45C1307,-343.77 1307,-322.78 1307,-308.97"/>
<polygon fill="black" stroke="black" points="1310.5,-309 1307,-299 1303.5,-309 1310.5,-309"/>
</g>
<!-- sequential_1/max_pooling2d_1/MaxPool2d&#45;&gt;sequential_1/conv2d_1_2/convolution -->
<g id="edge17" class="edge">
<title>sequential_1/max_pooling2d_1/MaxPool2d&#45;&gt;sequential_1/conv2d_1_2/convolution</title>
<path fill="none" stroke="black" d="M441.57,-536.86C452.98,-525.65 470.9,-510.47 490,-503.7 519.33,-493.3 738.9,-496.81 770,-495.7 776.79,-495.46 784,-495.17 790.99,-494.89"/>
<polygon fill="black" stroke="black" points="791.1,-498.38 800.94,-494.46 790.8,-491.39 791.1,-498.38"/>
</g>
<!-- sequential_1/max_pooling2d_1_2/MaxPool2d&#45;&gt;sequential_1/conv2d_2_1/convolution -->
<g id="edge26" class="edge">
<title>sequential_1/max_pooling2d_1_2/MaxPool2d&#45;&gt;sequential_1/conv2d_2_1/convolution</title>
<path fill="none" stroke="black" d="M895.79,-279.26C912.31,-268.05 937.47,-253.01 962,-246.35 992.04,-238.19 1210.91,-239.71 1242,-238.35 1243.42,-238.29 1244.86,-238.22 1246.32,-238.15"/>
<polygon fill="black" stroke="black" points="1246.29,-241.66 1256.09,-237.64 1245.92,-234.67 1246.29,-241.66"/>
</g>
</g>
</svg>
