<?xml version="1.0" encoding="UTF-8" standalone="no"?>
<!DOCTYPE svg PUBLIC "-//W3C//DTD SVG 1.1//EN"
 "http://www.w3.org/Graphics/SVG/1.1/DTD/svg11.dtd">
<!-- Generated by graphviz version 12.1.2 (20240928.0832)
 -->
<!-- Pages: 1 -->
<svg width="309pt" height="848pt"
 viewBox="0.00 0.00 309.00 847.85" xmlns="http://www.w3.org/2000/svg" xmlns:xlink="http://www.w3.org/1999/xlink">
<g id="graph0" class="graph" transform="scale(1 1) rotate(0) translate(4 843.85)">
<polygon fill="white" stroke="none" points="-4,4 -4,-843.85 305,-843.85 305,4 -4,4"/>
<g id="clust1" class="cluster">
<title>cluster_sequential_1sequential_1</title>
<path fill="#e0f3db" stroke="slategray" stroke-width="0.6" d="M20,-36.8C20,-36.8 281,-36.8 281,-36.8 287,-36.8 293,-42.8 293,-48.8 293,-48.8 293,-791.05 293,-791.05 293,-797.05 287,-803.05 281,-803.05 281,-803.05 20,-803.05 20,-803.05 14,-803.05 8,-797.05 8,-791.05 8,-791.05 8,-48.8 8,-48.8 8,-42.8 14,-36.8 20,-36.8"/>
<text text-anchor="middle" x="219" y="-44.75" font-family="monospace" font-size="14.00"> &#160;&#160;&#160;sequential_1</text>
</g>
<g id="clust2" class="cluster">
<title>cluster_sequential_1/conv2d_1conv2d_1</title>
<path fill="#ccebc5" stroke="slategray" stroke-width="0.6" d="M28,-610.75C28,-610.75 273,-610.75 273,-610.75 279,-610.75 285,-616.75 285,-622.75 285,-622.75 285,-783.05 285,-783.05 285,-789.05 279,-795.05 273,-795.05 273,-795.05 28,-795.05 28,-795.05 22,-795.05 16,-789.05 16,-783.05 16,-783.05 16,-622.75 16,-622.75 16,-616.75 22,-610.75 28,-610.75"/>
<text text-anchor="middle" x="227.5" y="-618.7" font-family="monospace" font-size="14.00"> &#160;&#160;&#160;conv2d_1</text>
</g>
<g id="clust3" class="cluster">
<title>cluster_sequential_1/conv2d_1/ReshapeReshape</title>
<polygon fill="#a8ddb5" stroke="slategray" stroke-width="0.6" points="24,-738.6 24,-787.05 130,-787.05 130,-738.6 24,-738.6"/>
<text text-anchor="middle" x="76.62" y="-746.55" font-family="monospace" font-size="14.00"> &#160;&#160;&#160;Reshape</text>
</g>
<g id="clust4" class="cluster">
<title>cluster_sequential_1/conv2d_1/convolutionconvolution</title>
<polygon fill="#a8ddb5" stroke="slategray" stroke-width="0.6" points="138,-738.6 138,-787.05 277,-787.05 277,-738.6 138,-738.6"/>
<text text-anchor="middle" x="207.12" y="-746.55" font-family="monospace" font-size="14.00"> &#160;&#160;&#160;convolution</text>
</g>
<g id="clust5" class="cluster">
<title>cluster_sequential_1/conv2d_1_2conv2d_1_2</title>
<path fill="#ccebc5" stroke="slategray" stroke-width="0.6" d="M28,-340.4C28,-340.4 273,-340.4 273,-340.4 279,-340.4 285,-346.4 285,-352.4 285,-352.4 285,-512.7 285,-512.7 285,-518.7 279,-524.7 273,-524.7 273,-524.7 28,-524.7 28,-524.7 22,-524.7 16,-518.7 16,-512.7 16,-512.7 16,-352.4 16,-352.4 16,-346.4 22,-340.4 28,-340.4"/>
<text text-anchor="middle" x="219.25" y="-348.35" font-family="monospace" font-size="14.00"> &#160;&#160;&#160;conv2d_1_2</text>
</g>
<g id="clust6" class="cluster">
<title>cluster_sequential_1/conv2d_1_2/ReshapeReshape</title>
<polygon fill="#a8ddb5" stroke="slategray" stroke-width="0.6" points="24,-468.25 24,-516.7 130,-516.7 130,-468.25 24,-468.25"/>
<text text-anchor="middle" x="76.62" y="-476.2" font-family="monospace" font-size="14.00"> &#160;&#160;&#160;Reshape</text>
</g>
<g id="clust7" class="cluster">
<title>cluster_sequential_1/conv2d_1_2/convolutionconvolution</title>
<polygon fill="#a8ddb5" stroke="slategray" stroke-width="0.6" points="138,-468.25 138,-516.7 277,-516.7 277,-468.25 138,-468.25"/>
<text text-anchor="middle" x="207.12" y="-476.2" font-family="monospace" font-size="14.00"> &#160;&#160;&#160;convolution</text>
</g>
<g id="clust8" class="cluster">
<title>cluster_sequential_1/conv2d_2_1conv2d_2_1</title>
<path fill="#ccebc5" stroke="slategray" stroke-width="0.6" d="M28,-70.05C28,-70.05 273,-70.05 273,-70.05 279,-70.05 285,-76.05 285,-82.05 285,-82.05 285,-242.35 285,-242.35 285,-248.35 279,-254.35 273,-254.35 273,-254.35 28,-254.35 28,-254.35 22,-254.35 16,-248.35 16,-242.35 16,-242.35 16,-82.05 16,-82.05 16,-76.05 22,-70.05 28,-70.05"/>
<text text-anchor="middle" x="219.25" y="-78" font-family="monospace" font-size="14.00"> &#160;&#160;&#160;conv2d_2_1</text>
</g>
<g id="clust9" class="cluster">
<title>cluster_sequential_1/conv2d_2_1/ReshapeReshape</title>
<polygon fill="#a8ddb5" stroke="slategray" stroke-width="0.6" points="24,-197.9 24,-246.35 130,-246.35 130,-197.9 24,-197.9"/>
<text text-anchor="middle" x="76.62" y="-205.85" font-family="monospace" font-size="14.00"> &#160;&#160;&#160;Reshape</text>
</g>
<g id="clust10" class="cluster">
<title>cluster_sequential_1/conv2d_2_1/convolutionconvolution</title>
<polygon fill="#a8ddb5" stroke="slategray" stroke-width="0.6" points="138,-197.9 138,-246.35 277,-246.35 277,-197.9 138,-197.9"/>
<text text-anchor="middle" x="207.12" y="-205.85" font-family="monospace" font-size="14.00"> &#160;&#160;&#160;convolution</text>
</g>
<g id="clust11" class="cluster">
<title>cluster_sequential_1/max_pooling2d_1max_pooling2d_1</title>
<path fill="#ccebc5" stroke="slategray" stroke-width="0.6" d="M104,-532.7C104,-532.7 252,-532.7 252,-532.7 258,-532.7 264,-538.7 264,-544.7 264,-544.7 264,-590.75 264,-590.75 264,-596.75 258,-602.75 252,-602.75 252,-602.75 104,-602.75 104,-602.75 98,-602.75 92,-596.75 92,-590.75 92,-590.75 92,-544.7 92,-544.7 92,-538.7 98,-532.7 104,-532.7"/>
<text text-anchor="middle" x="177.62" y="-540.65" font-family="monospace" font-size="14.00"> &#160;&#160;&#160;max_pooling2d_1</text>
</g>
<g id="clust12" class="cluster">
<title>cluster_sequential_1/max_pooling2d_1_2max_pooling2d_1_2</title>
<path fill="#ccebc5" stroke="slategray" stroke-width="0.6" d="M83,-262.35C83,-262.35 248,-262.35 248,-262.35 254,-262.35 260,-268.35 260,-274.35 260,-274.35 260,-320.4 260,-320.4 260,-326.4 254,-332.4 248,-332.4 248,-332.4 83,-332.4 83,-332.4 77,-332.4 71,-326.4 71,-320.4 71,-320.4 71,-274.35 71,-274.35 71,-268.35 77,-262.35 83,-262.35"/>
<text text-anchor="middle" x="165.38" y="-270.3" font-family="monospace" font-size="14.00"> &#160;&#160;&#160;max_pooling2d_1_2</text>
</g>
<!-- Identity -->
<g id="node1" class="node">
<title>Identity</title>
<polygon fill="#c1ffc1" stroke="black" points="165,-28.8 89,-28.8 89,0 165,0 165,-28.8"/>
<text text-anchor="middle" x="127" y="-10.12" font-family="monospace" font-size="12.00">Identity</text>
</g>
<!-- model_inputs_0 -->
<g id="node2" class="node">
<title>model_inputs_0</title>
<polygon fill="lightblue" stroke="black" points="261.5,-839.85 140.5,-839.85 140.5,-811.05 261.5,-811.05 261.5,-839.85"/>
<text text-anchor="middle" x="201" y="-821.17" font-family="monospace" font-size="12.00">model_inputs_0</text>
</g>
<!-- sequential_1/conv2d_1/convolution -->
<g id="node6" class="node">
<title>sequential_1/conv2d_1/convolution</title>
<polygon fill="none" stroke="none" points="229.8,-779.05 172.2,-779.05 172.2,-771.85 229.8,-771.85 229.8,-779.05"/>
</g>
<!-- model_inputs_0&#45;&gt;sequential_1/conv2d_1/convolution -->
<g id="edge5" class="edge">
<title>model_inputs_0&#45;&gt;sequential_1/conv2d_1/convolution</title>
<path fill="none" stroke="black" d="M201,-810.57C201,-804.25 201,-796.79 201,-790.46"/>
<polygon fill="black" stroke="black" points="204.5,-790.56 201,-780.56 197.5,-790.56 204.5,-790.56"/>
</g>
<!-- sequential_1/conv2d_1/Relu -->
<g id="node3" class="node">
<title>sequential_1/conv2d_1/Relu</title>
<polygon fill="#c1ffc1" stroke="black" points="229,-672.8 157,-672.8 157,-644 229,-644 229,-672.8"/>
<text text-anchor="middle" x="193" y="-654.12" font-family="monospace" font-size="12.00">Relu</text>
</g>
<!-- sequential_1/max_pooling2d_1/MaxPool2d -->
<g id="node15" class="node">
<title>sequential_1/max_pooling2d_1/MaxPool2d</title>
<polygon fill="#c1ffc1" stroke="black" points="234.75,-594.75 151.25,-594.75 151.25,-565.95 234.75,-565.95 234.75,-594.75"/>
<text text-anchor="middle" x="193" y="-576.08" font-family="monospace" font-size="12.00">MaxPool2d</text>
</g>
<!-- sequential_1/conv2d_1/Relu&#45;&gt;sequential_1/max_pooling2d_1/MaxPool2d -->
<g id="edge14" class="edge">
<title>sequential_1/conv2d_1/Relu&#45;&gt;sequential_1/max_pooling2d_1/MaxPool2d</title>
<path fill="none" stroke="black" d="M193,-643.8C193,-633.49 193,-619.01 193,-606.59"/>
<polygon fill="black" stroke="black" points="196.5,-606.6 193,-596.6 189.5,-606.6 196.5,-606.6"/>
</g>
<!-- sequential_1/conv2d_1/Reshape -->
<g id="node4" class="node">
<title>sequential_1/conv2d_1/Reshape</title>
<polygon fill="none" stroke="none" points="113.8,-779.05 56.2,-779.05 56.2,-771.85 113.8,-771.85 113.8,-779.05"/>
</g>
<!-- sequential_1/conv2d_1/add -->
<g id="node5" class="node">
<title>sequential_1/conv2d_1/add</title>
<polygon fill="#c1ffc1" stroke="black" points="229,-730.6 157,-730.6 157,-701.8 229,-701.8 229,-730.6"/>
<text text-anchor="middle" x="193" y="-711.92" font-family="monospace" font-size="12.00">add</text>
</g>
<!-- sequential_1/conv2d_1/Reshape&#45;&gt;sequential_1/conv2d_1/add -->
<g id="edge4" class="edge">
<title>sequential_1/conv2d_1/Reshape&#45;&gt;sequential_1/conv2d_1/add</title>
<path fill="none" stroke="black" d="M86.85,-772.15C92.04,-765.84 107.42,-748.14 124,-738.6 130.72,-734.73 138.22,-731.49 145.73,-728.79"/>
<polygon fill="black" stroke="black" points="146.79,-732.12 155.2,-725.68 144.61,-725.47 146.79,-732.12"/>
</g>
<!-- sequential_1/conv2d_1/add&#45;&gt;sequential_1/conv2d_1/Relu -->
<g id="edge2" class="edge">
<title>sequential_1/conv2d_1/add&#45;&gt;sequential_1/conv2d_1/Relu</title>
<path fill="none" stroke="black" d="M193,-701.41C193,-696.27 193,-690.27 193,-684.44"/>
<polygon fill="black" stroke="black" points="196.5,-684.55 193,-674.55 189.5,-684.55 196.5,-684.55"/>
</g>
<!-- sequential_1/conv2d_1/convolution&#45;&gt;sequential_1/conv2d_1/add -->
<g id="edge3" class="edge">
<title>sequential_1/conv2d_1/convolution&#45;&gt;sequential_1/conv2d_1/add</title>
<path fill="none" stroke="black" d="M200.66,-771.99C199.93,-766.76 198.15,-754.03 196.49,-742.15"/>
<polygon fill="black" stroke="black" points="199.97,-741.79 195.12,-732.38 193.04,-742.76 199.97,-741.79"/>
</g>
<!-- sequential_1/conv2d_1_2/Relu -->
<g id="node7" class="node">
<title>sequential_1/conv2d_1_2/Relu</title>
<polygon fill="#c1ffc1" stroke="black" points="221,-402.45 149,-402.45 149,-373.65 221,-373.65 221,-402.45"/>
<text text-anchor="middle" x="185" y="-383.78" font-family="monospace" font-size="12.00">Relu</text>
</g>
<!-- sequential_1/max_pooling2d_1_2/MaxPool2d -->
<g id="node16" class="node">
<title>sequential_1/max_pooling2d_1_2/MaxPool2d</title>
<polygon fill="#c1ffc1" stroke="black" points="226.75,-324.4 143.25,-324.4 143.25,-295.6 226.75,-295.6 226.75,-324.4"/>
<text text-anchor="middle" x="185" y="-305.73" font-family="monospace" font-size="12.00">MaxPool2d</text>
</g>
<!-- sequential_1/conv2d_1_2/Relu&#45;&gt;sequential_1/max_pooling2d_1_2/MaxPool2d -->
<g id="edge15" class="edge">
<title>sequential_1/conv2d_1_2/Relu&#45;&gt;sequential_1/max_pooling2d_1_2/MaxPool2d</title>
<path fill="none" stroke="black" d="M185,-373.45C185,-363.14 185,-348.66 185,-336.24"/>
<polygon fill="black" stroke="black" points="188.5,-336.25 185,-326.25 181.5,-336.25 188.5,-336.25"/>
</g>
<!-- sequential_1/conv2d_1_2/Reshape -->
<g id="node8" class="node">
<title>sequential_1/conv2d_1_2/Reshape</title>
<polygon fill="none" stroke="none" points="105.8,-508.7 48.2,-508.7 48.2,-501.5 105.8,-501.5 105.8,-508.7"/>
</g>
<!-- sequential_1/conv2d_1_2/add -->
<g id="node9" class="node">
<title>sequential_1/conv2d_1_2/add</title>
<polygon fill="#c1ffc1" stroke="black" points="221,-460.25 149,-460.25 149,-431.45 221,-431.45 221,-460.25"/>
<text text-anchor="middle" x="185" y="-441.58" font-family="monospace" font-size="12.00">add</text>
</g>
<!-- sequential_1/conv2d_1_2/Reshape&#45;&gt;sequential_1/conv2d_1_2/add -->
<g id="edge8" class="edge">
<title>sequential_1/conv2d_1_2/Reshape&#45;&gt;sequential_1/conv2d_1_2/add</title>
<path fill="none" stroke="black" d="M79.36,-501.86C85.93,-495.72 105.21,-478.38 124,-468.25 128.45,-465.85 133.23,-463.63 138.08,-461.6"/>
<polygon fill="black" stroke="black" points="139.25,-464.9 147.3,-458.02 136.71,-458.38 139.25,-464.9"/>
</g>
<!-- sequential_1/conv2d_1_2/add&#45;&gt;sequential_1/conv2d_1_2/Relu -->
<g id="edge6" class="edge">
<title>sequential_1/conv2d_1_2/add&#45;&gt;sequential_1/conv2d_1_2/Relu</title>
<path fill="none" stroke="black" d="M185,-431.06C185,-425.92 185,-419.92 185,-414.09"/>
<polygon fill="black" stroke="black" points="188.5,-414.2 185,-404.2 181.5,-414.2 188.5,-414.2"/>
</g>
<!-- sequential_1/conv2d_1_2/convolution -->
<g id="node10" class="node">
<title>sequential_1/conv2d_1_2/convolution</title>
<polygon fill="none" stroke="none" points="221.8,-508.7 164.2,-508.7 164.2,-501.5 221.8,-501.5 221.8,-508.7"/>
</g>
<!-- sequential_1/conv2d_1_2/convolution&#45;&gt;sequential_1/conv2d_1_2/add -->
<g id="edge7" class="edge">
<title>sequential_1/conv2d_1_2/convolution&#45;&gt;sequential_1/conv2d_1_2/add</title>
<path fill="none" stroke="black" d="M192.66,-501.64C191.93,-496.41 190.15,-483.68 188.49,-471.8"/>
<polygon fill="black" stroke="black" points="191.97,-471.44 187.12,-462.03 185.04,-472.41 191.97,-471.44"/>
</g>
<!-- sequential_1/conv2d_2_1/Relu -->
<g id="node11" class="node">
<title>sequential_1/conv2d_2_1/Relu</title>
<polygon fill="#c1ffc1" stroke="black" points="163,-132.1 91,-132.1 91,-103.3 163,-103.3 163,-132.1"/>
<text text-anchor="middle" x="127" y="-113.43" font-family="monospace" font-size="12.00">Relu</text>
</g>
<!-- sequential_1/conv2d_2_1/Relu&#45;&gt;Identity -->
<g id="edge1" class="edge">
<title>sequential_1/conv2d_2_1/Relu&#45;&gt;Identity</title>
<path fill="none" stroke="black" d="M127,-103.04C127,-87.03 127,-60.17 127,-40.4"/>
<polygon fill="black" stroke="black" points="130.5,-40.68 127,-30.68 123.5,-40.68 130.5,-40.68"/>
</g>
<!-- sequential_1/conv2d_2_1/Reshape -->
<g id="node12" class="node">
<title>sequential_1/conv2d_2_1/Reshape</title>
<polygon fill="none" stroke="none" points="97.8,-238.35 40.2,-238.35 40.2,-231.15 97.8,-231.15 97.8,-238.35"/>
</g>
<!-- sequential_1/conv2d_2_1/add -->
<g id="node13" class="node">
<title>sequential_1/conv2d_2_1/add</title>
<polygon fill="#c1ffc1" stroke="black" points="163,-189.9 91,-189.9 91,-161.1 163,-161.1 163,-189.9"/>
<text text-anchor="middle" x="127" y="-171.22" font-family="monospace" font-size="12.00">add</text>
</g>
<!-- sequential_1/conv2d_2_1/Reshape&#45;&gt;sequential_1/conv2d_2_1/add -->
<g id="edge12" class="edge">
<title>sequential_1/conv2d_2_1/Reshape&#45;&gt;sequential_1/conv2d_2_1/add</title>
<path fill="none" stroke="black" d="M71.49,-231.29C77.29,-225.57 92.17,-210.87 105.07,-198.14"/>
<polygon fill="black" stroke="black" points="107.41,-200.76 112.07,-191.24 102.49,-195.77 107.41,-200.76"/>
</g>
<!-- sequential_1/conv2d_2_1/add&#45;&gt;sequential_1/conv2d_2_1/Relu -->
<g id="edge10" class="edge">
<title>sequential_1/conv2d_2_1/add&#45;&gt;sequential_1/conv2d_2_1/Relu</title>
<path fill="none" stroke="black" d="M127,-160.71C127,-155.57 127,-149.57 127,-143.74"/>
<polygon fill="black" stroke="black" points="130.5,-143.85 127,-133.85 123.5,-143.85 130.5,-143.85"/>
</g>
<!-- sequential_1/conv2d_2_1/convolution -->
<g id="node14" class="node">
<title>sequential_1/conv2d_2_1/convolution</title>
<polygon fill="none" stroke="none" points="213.8,-238.35 156.2,-238.35 156.2,-231.15 213.8,-231.15 213.8,-238.35"/>
</g>
<!-- sequential_1/conv2d_2_1/convolution&#45;&gt;sequential_1/conv2d_2_1/add -->
<g id="edge11" class="edge">
<title>sequential_1/conv2d_2_1/convolution&#45;&gt;sequential_1/conv2d_2_1/add</title>
<path fill="none" stroke="black" d="M182.51,-231.29C176.71,-225.57 161.83,-210.87 148.93,-198.14"/>
<polygon fill="black" stroke="black" points="151.51,-195.77 141.93,-191.24 146.59,-200.76 151.51,-195.77"/>
</g>
<!-- sequential_1/max_pooling2d_1/MaxPool2d&#45;&gt;sequential_1/conv2d_1_2/convolution -->
<g id="edge9" class="edge">
<title>sequential_1/max_pooling2d_1/MaxPool2d&#45;&gt;sequential_1/conv2d_1_2/convolution</title>
<path fill="none" stroke="black" d="M193,-565.57C193,-552.56 193,-533.15 193,-520.08"/>
<polygon fill="black" stroke="black" points="196.5,-520.2 193,-510.2 189.5,-520.2 196.5,-520.2"/>
</g>
<!-- sequential_1/max_pooling2d_1_2/MaxPool2d&#45;&gt;sequential_1/conv2d_2_1/convolution -->
<g id="edge13" class="edge">
<title>sequential_1/max_pooling2d_1_2/MaxPool2d&#45;&gt;sequential_1/conv2d_2_1/convolution</title>
<path fill="none" stroke="black" d="M185,-295.22C185,-282.21 185,-262.8 185,-249.73"/>
<polygon fill="black" stroke="black" points="188.5,-249.85 185,-239.85 181.5,-249.85 188.5,-249.85"/>
</g>
</g>
</svg>
