<?xml version="1.0" encoding="UTF-8" standalone="no"?>
<!DOCTYPE svg PUBLIC "-//W3C//DTD SVG 1.1//EN"
 "http://www.w3.org/Graphics/SVG/1.1/DTD/svg11.dtd">
<!-- Generated by graphviz version 12.1.2 (20240928.0832)
 -->
<!-- Pages: 1 -->
<svg width="172pt" height="544pt"
 viewBox="0.00 0.00 172.00 544.35" xmlns="http://www.w3.org/2000/svg" xmlns:xlink="http://www.w3.org/1999/xlink">
<g id="graph0" class="graph" transform="scale(1 1) rotate(0) translate(4 540.35)">
<polygon fill="white" stroke="none" points="-4,4 -4,-540.35 168,-540.35 168,4 -4,4"/>
<g id="clust1" class="cluster">
<title>cluster_sequential_1sequential_1</title>
<path fill="#e0f3db" stroke="slategray" stroke-width="0.6" d="M20,-36.8C20,-36.8 144,-36.8 144,-36.8 150,-36.8 156,-42.8 156,-48.8 156,-48.8 156,-487.55 156,-487.55 156,-493.55 150,-499.55 144,-499.55 144,-499.55 20,-499.55 20,-499.55 14,-499.55 8,-493.55 8,-487.55 8,-487.55 8,-48.8 8,-48.8 8,-42.8 14,-36.8 20,-36.8"/>
<text text-anchor="middle" x="82" y="-44.75" font-family="monospace" font-size="14.00"> &#160;&#160;&#160;sequential_1</text>
</g>
<g id="clust2" class="cluster">
<title>cluster_sequential_1/dense_1dense_1</title>
<path fill="#ccebc5" stroke="slategray" stroke-width="0.6" d="M32,-217.55C32,-217.55 114,-217.55 114,-217.55 120,-217.55 126,-223.55 126,-229.55 126,-229.55 126,-381.85 126,-381.85 126,-387.85 120,-393.85 114,-393.85 114,-393.85 32,-393.85 32,-393.85 26,-393.85 20,-387.85 20,-381.85 20,-381.85 20,-229.55 20,-229.55 20,-223.55 26,-217.55 32,-217.55"/>
<text text-anchor="middle" x="72.62" y="-225.5" font-family="monospace" font-size="14.00"> &#160;&#160;&#160;dense_1</text>
</g>
<g id="clust3" class="cluster">
<title>cluster_sequential_1/dense_1/AddAdd</title>
<polygon fill="#a8ddb5" stroke="slategray" stroke-width="0.6" points="30,-287.6 30,-336.05 104,-336.05 104,-287.6 30,-287.6"/>
<text text-anchor="middle" x="67.12" y="-295.55" font-family="monospace" font-size="14.00"> &#160;&#160;&#160;Add</text>
</g>
<g id="clust5" class="cluster">
<title>cluster_sequential_1/dense_1_2dense_1_2</title>
<path fill="#ccebc5" stroke="slategray" stroke-width="0.6" d="M31,-70.05C31,-70.05 130,-70.05 130,-70.05 136,-70.05 142,-76.05 142,-82.05 142,-82.05 142,-197.55 142,-197.55 142,-203.55 136,-209.55 130,-209.55 130,-209.55 31,-209.55 31,-209.55 25,-209.55 19,-203.55 19,-197.55 19,-197.55 19,-82.05 19,-82.05 19,-76.05 25,-70.05 31,-70.05"/>
<text text-anchor="middle" x="80.38" y="-78" font-family="monospace" font-size="14.00"> &#160;&#160;&#160;dense_1_2</text>
</g>
<g id="clust6" class="cluster">
<title>cluster_sequential_1/dense_1_2/AddAdd</title>
<polygon fill="#a8ddb5" stroke="slategray" stroke-width="0.6" points="30,-103.3 30,-151.75 104,-151.75 104,-103.3 30,-103.3"/>
<text text-anchor="middle" x="67.12" y="-111.25" font-family="monospace" font-size="14.00"> &#160;&#160;&#160;Add</text>
</g>
<g id="clust8" class="cluster">
<title>cluster_sequential_1/flatten_1flatten_1</title>
<path fill="#ccebc5" stroke="slategray" stroke-width="0.6" d="M31,-401.85C31,-401.85 130,-401.85 130,-401.85 136,-401.85 142,-407.85 142,-413.85 142,-413.85 142,-479.55 142,-479.55 142,-485.55 136,-491.55 130,-491.55 130,-491.55 31,-491.55 31,-491.55 25,-491.55 19,-485.55 19,-479.55 19,-479.55 19,-413.85 19,-413.85 19,-407.85 25,-401.85 31,-401.85"/>
<text text-anchor="middle" x="80.38" y="-409.8" font-family="monospace" font-size="14.00"> &#160;&#160;&#160;flatten_1</text>
</g>
<g id="clust9" class="cluster">
<title>cluster_sequential_1/flatten_1/ReshapeReshape</title>
<polygon fill="#a8ddb5" stroke="slategray" stroke-width="0.6" points="27,-435.1 27,-483.55 133,-483.55 133,-435.1 27,-435.1"/>
<text text-anchor="middle" x="79.62" y="-443.05" font-family="monospace" font-size="14.00"> &#160;&#160;&#160;Reshape</text>
</g>
<!-- Identity -->
<g id="node1" class="node">
<title>Identity</title>
<polygon fill="#c1ffc1" stroke="black" points="105,-28.8 29,-28.8 29,0 105,0 105,-28.8"/>
<text text-anchor="middle" x="67" y="-10.12" font-family="monospace" font-size="12.00">Identity</text>
</g>
<!-- model_inputs_0 -->
<g id="node2" class="node">
<title>model_inputs_0</title>
<polygon fill="lightblue" stroke="black" points="127.5,-536.35 6.5,-536.35 6.5,-507.55 127.5,-507.55 127.5,-536.35"/>
<text text-anchor="middle" x="67" y="-517.68" font-family="monospace" font-size="12.00">model_inputs_0</text>
</g>
<!-- sequential_1/flatten_1/Reshape -->
<g id="node8" class="node">
<title>sequential_1/flatten_1/Reshape</title>
<polygon fill="none" stroke="none" points="95.8,-475.55 38.2,-475.55 38.2,-468.35 95.8,-468.35 95.8,-475.55"/>
</g>
<!-- model_inputs_0&#45;&gt;sequential_1/flatten_1/Reshape -->
<g id="edge7" class="edge">
<title>model_inputs_0&#45;&gt;sequential_1/flatten_1/Reshape</title>
<path fill="none" stroke="black" d="M67,-507.07C67,-500.75 67,-493.29 67,-486.96"/>
<polygon fill="black" stroke="black" points="70.5,-487.06 67,-477.06 63.5,-487.06 70.5,-487.06"/>
</g>
<!-- sequential_1/dense_1/Add -->
<g id="node3" class="node">
<title>sequential_1/dense_1/Add</title>
<polygon fill="none" stroke="none" points="95.8,-328.05 38.2,-328.05 38.2,-320.85 95.8,-320.85 95.8,-328.05"/>
</g>
<!-- sequential_1/dense_1/Relu -->
<g id="node5" class="node">
<title>sequential_1/dense_1/Relu</title>
<polygon fill="#c1ffc1" stroke="black" points="103,-279.6 31,-279.6 31,-250.8 103,-250.8 103,-279.6"/>
<text text-anchor="middle" x="67" y="-260.93" font-family="monospace" font-size="12.00">Relu</text>
</g>
<!-- sequential_1/dense_1/Add&#45;&gt;sequential_1/dense_1/Relu -->
<g id="edge4" class="edge">
<title>sequential_1/dense_1/Add&#45;&gt;sequential_1/dense_1/Relu</title>
<path fill="none" stroke="black" d="M67,-320.99C67,-315.76 67,-303.03 67,-291.15"/>
<polygon fill="black" stroke="black" points="70.5,-291.39 67,-281.39 63.5,-291.39 70.5,-291.39"/>
</g>
<!-- sequential_1/dense_1/MatMul -->
<g id="node4" class="node">
<title>sequential_1/dense_1/MatMul</title>
<polygon fill="#c1ffc1" stroke="black" points="103,-385.85 31,-385.85 31,-357.05 103,-357.05 103,-385.85"/>
<text text-anchor="middle" x="67" y="-367.18" font-family="monospace" font-size="12.00">MatMul</text>
</g>
<!-- sequential_1/dense_1/MatMul&#45;&gt;sequential_1/dense_1/Add -->
<g id="edge2" class="edge">
<title>sequential_1/dense_1/MatMul&#45;&gt;sequential_1/dense_1/Add</title>
<path fill="none" stroke="black" d="M67,-356.7C67,-351.05 67,-344.52 67,-338.9"/>
<polygon fill="black" stroke="black" points="70.5,-339.31 67,-329.31 63.5,-339.31 70.5,-339.31"/>
</g>
<!-- sequential_1/dense_1_2/MatMul -->
<g id="node7" class="node">
<title>sequential_1/dense_1_2/MatMul</title>
<polygon fill="#c1ffc1" stroke="black" points="103,-201.55 31,-201.55 31,-172.75 103,-172.75 103,-201.55"/>
<text text-anchor="middle" x="67" y="-182.88" font-family="monospace" font-size="12.00">MatMul</text>
</g>
<!-- sequential_1/dense_1/Relu&#45;&gt;sequential_1/dense_1_2/MatMul -->
<g id="edge6" class="edge">
<title>sequential_1/dense_1/Relu&#45;&gt;sequential_1/dense_1_2/MatMul</title>
<path fill="none" stroke="black" d="M67,-250.6C67,-240.29 67,-225.81 67,-213.39"/>
<polygon fill="black" stroke="black" points="70.5,-213.4 67,-203.4 63.5,-213.4 70.5,-213.4"/>
</g>
<!-- sequential_1/dense_1_2/Add -->
<g id="node6" class="node">
<title>sequential_1/dense_1_2/Add</title>
<polygon fill="none" stroke="none" points="95.8,-143.75 38.2,-143.75 38.2,-136.55 95.8,-136.55 95.8,-143.75"/>
</g>
<!-- sequential_1/dense_1_2/Add&#45;&gt;Identity -->
<g id="edge1" class="edge">
<title>sequential_1/dense_1_2/Add&#45;&gt;Identity</title>
<path fill="none" stroke="black" d="M67,-136.57C67,-124.43 67,-72.38 67,-40.58"/>
<polygon fill="black" stroke="black" points="70.5,-40.64 67,-30.64 63.5,-40.64 70.5,-40.64"/>
</g>
<!-- sequential_1/dense_1_2/MatMul&#45;&gt;sequential_1/dense_1_2/Add -->
<g id="edge5" class="edge">
<title>sequential_1/dense_1_2/MatMul&#45;&gt;sequential_1/dense_1_2/Add</title>
<path fill="none" stroke="black" d="M67,-172.4C67,-166.75 67,-160.22 67,-154.6"/>
<polygon fill="black" stroke="black" points="70.5,-155.01 67,-145.01 63.5,-155.01 70.5,-155.01"/>
</g>
<!-- sequential_1/flatten_1/Reshape&#45;&gt;sequential_1/dense_1/MatMul -->
<g id="edge3" class="edge">
<title>sequential_1/flatten_1/Reshape&#45;&gt;sequential_1/dense_1/MatMul</title>
<path fill="none" stroke="black" d="M67,-468.52C67,-458.84 67,-422.43 67,-397.32"/>
<polygon fill="black" stroke="black" points="70.5,-397.58 67,-387.58 63.5,-397.58 70.5,-397.58"/>
</g>
</g>
</svg>
