<?xml version="1.0" encoding="UTF-8" standalone="no"?>
<!DOCTYPE svg PUBLIC "-//W3C//DTD SVG 1.1//EN"
 "http://www.w3.org/Graphics/SVG/1.1/DTD/svg11.dtd">
<!-- Generated by graphviz version 12.1.2 (20240928.0832)
 -->
<!-- Pages: 1 -->
<svg width="764pt" height="598pt"
 viewBox="0.00 0.00 764.00 598.25" xmlns="http://www.w3.org/2000/svg" xmlns:xlink="http://www.w3.org/1999/xlink">
<g id="graph0" class="graph" transform="scale(1 1) rotate(0) translate(4 594.25)">
<polygon fill="white" stroke="none" points="-4,4 -4,-594.25 760,-594.25 760,4 -4,4"/>
<g id="clust1" class="cluster">
<title>cluster_sequential_1</title>
<polygon fill="none" stroke="black" stroke-width="2" points="8,-28.75 8,-582.25 694,-582.25 694,-28.75 8,-28.75"/>
<text text-anchor="middle" x="351" y="-35.6" font-family="monospace" font-size="12.00">sequential_1</text>
</g>
<g id="clust2" class="cluster">
<title>cluster_sequential_1/dense_1</title>
<polygon fill="none" stroke="black" stroke-width="2" points="16,-177 16,-574.25 380,-574.25 380,-177 16,-177"/>
<text text-anchor="middle" x="198" y="-183.85" font-family="monospace" font-size="12.00">dense_1</text>
</g>
<g id="clust3" class="cluster">
<title>cluster_sequential_1/dense_1/Add</title>
<polygon fill="none" stroke="black" stroke-width="2" points="24,-335 24,-461 161,-461 161,-335 24,-335"/>
<text text-anchor="middle" x="92.5" y="-341.85" font-family="monospace" font-size="12.00">Add</text>
</g>
<g id="clust4" class="cluster">
<title>cluster_sequential_1/dense_1/Add/ReadVariableOp</title>
<polygon fill="none" stroke="black" stroke-width="2" points="32,-394 32,-453 153,-453 153,-394 32,-394"/>
<text text-anchor="middle" x="92.5" y="-400.85" font-family="monospace" font-size="12.00">ReadVariableOp</text>
</g>
<g id="clust5" class="cluster">
<title>cluster_sequential_1/dense_1/Cast</title>
<polygon fill="none" stroke="black" stroke-width="2" points="169,-394 169,-566.25 306,-566.25 306,-394 169,-394"/>
<text text-anchor="middle" x="237.5" y="-400.85" font-family="monospace" font-size="12.00">Cast</text>
</g>
<g id="clust6" class="cluster">
<title>cluster_sequential_1/dense_1/Cast/ReadVariableOp</title>
<polygon fill="none" stroke="black" stroke-width="2" points="177,-499.25 177,-558.25 298,-558.25 298,-499.25 177,-499.25"/>
<text text-anchor="middle" x="237.5" y="-506.1" font-family="monospace" font-size="12.00">ReadVariableOp</text>
</g>
<g id="clust7" class="cluster">
<title>cluster_sequential_1/dense_1_2</title>
<polygon fill="none" stroke="black" stroke-width="2" points="388,-59 388,-327 686,-327 686,-59 388,-59"/>
<text text-anchor="middle" x="537" y="-65.85" font-family="monospace" font-size="12.00">dense_1_2</text>
</g>
<g id="clust8" class="cluster">
<title>cluster_sequential_1/dense_1_2/Add</title>
<polygon fill="none" stroke="black" stroke-width="2" points="541,-118 541,-244 678,-244 678,-118 541,-118"/>
<text text-anchor="middle" x="609.5" y="-124.85" font-family="monospace" font-size="12.00">Add</text>
</g>
<g id="clust9" class="cluster">
<title>cluster_sequential_1/dense_1_2/Add/ReadVariableOp</title>
<polygon fill="none" stroke="black" stroke-width="2" points="549,-177 549,-236 670,-236 670,-177 549,-177"/>
<text text-anchor="middle" x="609.5" y="-183.85" font-family="monospace" font-size="12.00">ReadVariableOp</text>
</g>
<g id="clust10" class="cluster">
<title>cluster_sequential_1/dense_1_2/Cast</title>
<polygon fill="none" stroke="black" stroke-width="2" points="396,-177 396,-319 533,-319 533,-177 396,-177"/>
<text text-anchor="middle" x="464.5" y="-183.85" font-family="monospace" font-size="12.00">Cast</text>
</g>
<g id="clust11" class="cluster">
<title>cluster_sequential_1/dense_1_2/Cast/ReadVariableOp</title>
<polygon fill="none" stroke="black" stroke-width="2" points="404,-252 404,-311 525,-311 525,-252 404,-252"/>
<text text-anchor="middle" x="464.5" y="-258.85" font-family="monospace" font-size="12.00">ReadVariableOp</text>
</g>
<g id="clust12" class="cluster">
<title>cluster_sequential_1/flatten_1</title>
<polygon fill="none" stroke="black" stroke-width="2" points="388,-469 388,-566.25 595,-566.25 595,-469 388,-469"/>
<text text-anchor="middle" x="491.5" y="-475.85" font-family="monospace" font-size="12.00">flatten_1</text>
</g>
<g id="clust13" class="cluster">
<title>cluster_sequential_1/flatten_1/Reshape</title>
<polygon fill="none" stroke="black" stroke-width="2" points="396,-499.25 396,-558.25 466,-558.25 466,-499.25 396,-499.25"/>
<text text-anchor="middle" x="431" y="-506.1" font-family="monospace" font-size="12.00">Reshape</text>
</g>
<!-- Identity -->
<g id="node1" class="node">
<title>Identity</title>
<polygon fill="#b4eeb4" stroke="black" points="568,-20.75 504,-20.75 504,0 568,0 568,-20.75"/>
<text text-anchor="middle" x="536" y="-7.25" font-family="monospace" font-size="10.00">Identity</text>
</g>
<!-- sequential_1/dense_1_2/Add -->
<g id="node2" class="node">
<title>sequential_1/dense_1_2/Add</title>
<polygon fill="#b4eeb4" stroke="black" points="563,-110 509,-110 509,-89.25 563,-89.25 563,-110"/>
<text text-anchor="middle" x="536" y="-96.5" font-family="monospace" font-size="10.00">Add</text>
</g>
<!-- sequential_1/dense_1_2/Add&#45;&gt;Identity -->
<g id="edge1" class="edge">
<title>sequential_1/dense_1_2/Add&#45;&gt;Identity</title>
<path fill="none" stroke="black" d="M536,-88.95C536,-75.39 536,-50.38 536,-32.41"/>
<polygon fill="black" stroke="black" points="539.5,-32.6 536,-22.6 532.5,-32.6 539.5,-32.6"/>
</g>
<!-- NoOp -->
<g id="node3" class="node">
<title>NoOp</title>
<polygon fill="#b4eeb4" stroke="black" points="756,-550.25 702,-550.25 702,-529.5 756,-529.5 756,-550.25"/>
<text text-anchor="middle" x="729" y="-536.75" font-family="monospace" font-size="10.00">NoOp</text>
</g>
<!-- model_inputs_0 -->
<g id="node4" class="node">
<title>model_inputs_0</title>
<polygon fill="#b4eeb4" stroke="black" points="587,-550.25 487,-550.25 487,-529.5 587,-529.5 587,-550.25"/>
<text text-anchor="middle" x="537" y="-536.75" font-family="monospace" font-size="10.00">model_inputs_0</text>
</g>
<!-- sequential_1/flatten_1/Reshape -->
<g id="node11" class="node">
<title>sequential_1/flatten_1/Reshape</title>
<polygon fill="#b4eeb4" stroke="black" points="372,-445 314,-445 314,-424.25 372,-424.25 372,-445"/>
<text text-anchor="middle" x="343" y="-431.5" font-family="monospace" font-size="10.00">Reshape</text>
</g>
<!-- model_inputs_0&#45;&gt;sequential_1/flatten_1/Reshape -->
<g id="edge15" class="edge">
<title>model_inputs_0&#45;&gt;sequential_1/flatten_1/Reshape</title>
<path fill="none" stroke="black" d="M530.82,-529.1C520.66,-513.86 498.96,-484.57 473,-469 445.76,-452.66 410.67,-444.26 383.81,-439.97"/>
<polygon fill="black" stroke="black" points="384.37,-436.52 373.97,-438.55 383.37,-443.45 384.37,-436.52"/>
</g>
<!-- sequential_1/dense_1/Add -->
<g id="node5" class="node">
<title>sequential_1/dense_1/Add</title>
<polygon fill="#b4eeb4" stroke="black" points="289,-303 235,-303 235,-282.25 289,-282.25 289,-303"/>
<text text-anchor="middle" x="262" y="-289.5" font-family="monospace" font-size="10.00">Add</text>
</g>
<!-- sequential_1/dense_1/Relu -->
<g id="node12" class="node">
<title>sequential_1/dense_1/Relu</title>
<polygon fill="#b4eeb4" stroke="black" points="344,-228 290,-228 290,-207.25 344,-207.25 344,-228"/>
<text text-anchor="middle" x="317" y="-214.5" font-family="monospace" font-size="10.00">Relu</text>
</g>
<!-- sequential_1/dense_1/Add&#45;&gt;sequential_1/dense_1/Relu -->
<g id="edge8" class="edge">
<title>sequential_1/dense_1/Add&#45;&gt;sequential_1/dense_1/Relu</title>
<path fill="none" stroke="black" d="M269.42,-281.78C277.99,-270.4 292.3,-251.41 302.99,-237.22"/>
<polygon fill="black" stroke="black" points="305.57,-239.62 308.79,-229.52 299.98,-235.4 305.57,-239.62"/>
</g>
<!-- sequential_1/dense_1/MatMul -->
<g id="node6" class="node">
<title>sequential_1/dense_1/MatMul</title>
<polygon fill="#b4eeb4" stroke="black" points="289,-386 235,-386 235,-365.25 289,-365.25 289,-386"/>
<text text-anchor="middle" x="262" y="-372.5" font-family="monospace" font-size="10.00">MatMul</text>
</g>
<!-- sequential_1/dense_1/MatMul&#45;&gt;sequential_1/dense_1/Add -->
<g id="edge2" class="edge">
<title>sequential_1/dense_1/MatMul&#45;&gt;sequential_1/dense_1/Add</title>
<path fill="none" stroke="black" d="M262,-365.02C262,-352.59 262,-330.62 262,-314.33"/>
<polygon fill="black" stroke="black" points="265.5,-314.74 262,-304.74 258.5,-314.74 265.5,-314.74"/>
</g>
<!-- sequential_1/dense_1/Add/ReadVariableOp -->
<g id="node7" class="node">
<title>sequential_1/dense_1/Add/ReadVariableOp</title>
<polygon fill="#b4eeb4" stroke="black" points="153,-386 53,-386 53,-365.25 153,-365.25 153,-386"/>
<text text-anchor="middle" x="103" y="-372.5" font-family="monospace" font-size="10.00">ReadVariableOp</text>
</g>
<!-- sequential_1/dense_1/Add/ReadVariableOp&#45;&gt;sequential_1/dense_1/Add -->
<g id="edge3" class="edge">
<title>sequential_1/dense_1/Add/ReadVariableOp&#45;&gt;sequential_1/dense_1/Add</title>
<path fill="none" stroke="black" d="M114.42,-364.89C124.96,-356.23 141.32,-343.65 157,-335 178.28,-323.26 203.58,-313.18 224.02,-305.91"/>
<polygon fill="black" stroke="black" points="225.09,-309.25 233.39,-302.67 222.79,-302.64 225.09,-309.25"/>
</g>
<!-- sequential_1/dense_1/Add/ReadVariableOp/resource -->
<g id="node8" class="node">
<title>sequential_1/dense_1/Add/ReadVariableOp/resource</title>
<polygon fill="#b4eeb4" stroke="black" points="135,-445 71,-445 71,-424.25 135,-424.25 135,-445"/>
<text text-anchor="middle" x="103" y="-431.5" font-family="monospace" font-size="10.00">resource</text>
</g>
<!-- sequential_1/dense_1/Add/ReadVariableOp/resource&#45;&gt;sequential_1/dense_1/Add/ReadVariableOp -->
<g id="edge4" class="edge">
<title>sequential_1/dense_1/Add/ReadVariableOp/resource&#45;&gt;sequential_1/dense_1/Add/ReadVariableOp</title>
<path fill="none" stroke="black" d="M103,-423.96C103,-416.71 103,-406.51 103,-397.44"/>
<polygon fill="black" stroke="black" points="106.5,-397.66 103,-387.67 99.5,-397.67 106.5,-397.66"/>
</g>
<!-- sequential_1/dense_1/Cast/ReadVariableOp -->
<g id="node9" class="node">
<title>sequential_1/dense_1/Cast/ReadVariableOp</title>
<polygon fill="#b4eeb4" stroke="black" points="285,-445 185,-445 185,-424.25 285,-424.25 285,-445"/>
<text text-anchor="middle" x="235" y="-431.5" font-family="monospace" font-size="10.00">ReadVariableOp</text>
</g>
<!-- sequential_1/dense_1/Cast/ReadVariableOp&#45;&gt;sequential_1/dense_1/MatMul -->
<g id="edge7" class="edge">
<title>sequential_1/dense_1/Cast/ReadVariableOp&#45;&gt;sequential_1/dense_1/MatMul</title>
<path fill="none" stroke="black" d="M239.58,-423.96C243.13,-416.46 248.17,-405.82 252.58,-396.52"/>
<polygon fill="black" stroke="black" points="255.72,-398.06 256.84,-387.52 249.4,-395.06 255.72,-398.06"/>
</g>
<!-- sequential_1/dense_1/Cast/ReadVariableOp/resource -->
<g id="node10" class="node">
<title>sequential_1/dense_1/Cast/ReadVariableOp/resource</title>
<polygon fill="#b4eeb4" stroke="black" points="267,-550.25 203,-550.25 203,-529.5 267,-529.5 267,-550.25"/>
<text text-anchor="middle" x="235" y="-536.75" font-family="monospace" font-size="10.00">resource</text>
</g>
<!-- sequential_1/dense_1/Cast/ReadVariableOp/resource&#45;&gt;sequential_1/dense_1/Cast/ReadVariableOp -->
<g id="edge5" class="edge">
<title>sequential_1/dense_1/Cast/ReadVariableOp/resource&#45;&gt;sequential_1/dense_1/Cast/ReadVariableOp</title>
<path fill="none" stroke="black" d="M235,-529.35C235,-512.91 235,-478.86 235,-456.65"/>
<polygon fill="black" stroke="black" points="238.5,-456.95 235,-446.95 231.5,-456.95 238.5,-456.95"/>
</g>
<!-- sequential_1/flatten_1/Reshape&#45;&gt;sequential_1/dense_1/MatMul -->
<g id="edge6" class="edge">
<title>sequential_1/flatten_1/Reshape&#45;&gt;sequential_1/dense_1/MatMul</title>
<path fill="none" stroke="black" d="M337.06,-423.88C331.19,-414.98 321.43,-402.02 310,-394 306.82,-391.77 303.32,-389.79 299.71,-388.05"/>
<polygon fill="black" stroke="black" points="301.36,-384.94 290.78,-384.32 298.66,-391.4 301.36,-384.94"/>
</g>
<!-- sequential_1/dense_1_2/MatMul -->
<g id="node13" class="node">
<title>sequential_1/dense_1_2/MatMul</title>
<polygon fill="#b4eeb4" stroke="black" points="491,-169 437,-169 437,-148.25 491,-148.25 491,-169"/>
<text text-anchor="middle" x="464" y="-155.5" font-family="monospace" font-size="10.00">MatMul</text>
</g>
<!-- sequential_1/dense_1/Relu&#45;&gt;sequential_1/dense_1_2/MatMul -->
<g id="edge13" class="edge">
<title>sequential_1/dense_1/Relu&#45;&gt;sequential_1/dense_1_2/MatMul</title>
<path fill="none" stroke="black" d="M331.86,-206.85C346.02,-197.93 368.21,-184.95 389,-177 400.64,-172.55 413.74,-169.04 425.7,-166.37"/>
<polygon fill="black" stroke="black" points="426.18,-169.84 435.26,-164.37 424.75,-162.99 426.18,-169.84"/>
</g>
<!-- sequential_1/dense_1_2/MatMul&#45;&gt;sequential_1/dense_1_2/Add -->
<g id="edge9" class="edge">
<title>sequential_1/dense_1_2/MatMul&#45;&gt;sequential_1/dense_1_2/Add</title>
<path fill="none" stroke="black" d="M476.21,-147.96C486.83,-139.55 502.44,-127.2 515.04,-117.22"/>
<polygon fill="black" stroke="black" points="517.11,-120.04 522.78,-111.09 512.77,-114.55 517.11,-120.04"/>
</g>
<!-- sequential_1/dense_1_2/Add/ReadVariableOp -->
<g id="node14" class="node">
<title>sequential_1/dense_1_2/Add/ReadVariableOp</title>
<polygon fill="#b4eeb4" stroke="black" points="649,-169 549,-169 549,-148.25 649,-148.25 649,-169"/>
<text text-anchor="middle" x="599" y="-155.5" font-family="monospace" font-size="10.00">ReadVariableOp</text>
</g>
<!-- sequential_1/dense_1_2/Add/ReadVariableOp&#45;&gt;sequential_1/dense_1_2/Add -->
<g id="edge10" class="edge">
<title>sequential_1/dense_1_2/Add/ReadVariableOp&#45;&gt;sequential_1/dense_1_2/Add</title>
<path fill="none" stroke="black" d="M588.31,-147.96C579.21,-139.72 565.9,-127.68 554.99,-117.81"/>
<polygon fill="black" stroke="black" points="557.42,-115.28 547.65,-111.17 552.72,-120.47 557.42,-115.28"/>
</g>
<!-- sequential_1/dense_1_2/Add/ReadVariableOp/resource -->
<g id="node15" class="node">
<title>sequential_1/dense_1_2/Add/ReadVariableOp/resource</title>
<polygon fill="#b4eeb4" stroke="black" points="631,-228 567,-228 567,-207.25 631,-207.25 631,-228"/>
<text text-anchor="middle" x="599" y="-214.5" font-family="monospace" font-size="10.00">resource</text>
</g>
<!-- sequential_1/dense_1_2/Add/ReadVariableOp/resource&#45;&gt;sequential_1/dense_1_2/Add/ReadVariableOp -->
<g id="edge11" class="edge">
<title>sequential_1/dense_1_2/Add/ReadVariableOp/resource&#45;&gt;sequential_1/dense_1_2/Add/ReadVariableOp</title>
<path fill="none" stroke="black" d="M599,-206.96C599,-199.71 599,-189.51 599,-180.44"/>
<polygon fill="black" stroke="black" points="602.5,-180.66 599,-170.67 595.5,-180.67 602.5,-180.66"/>
</g>
<!-- sequential_1/dense_1_2/Cast/ReadVariableOp -->
<g id="node16" class="node">
<title>sequential_1/dense_1_2/Cast/ReadVariableOp</title>
<polygon fill="#b4eeb4" stroke="black" points="514,-228 414,-228 414,-207.25 514,-207.25 514,-228"/>
<text text-anchor="middle" x="464" y="-214.5" font-family="monospace" font-size="10.00">ReadVariableOp</text>
</g>
<!-- sequential_1/dense_1_2/Cast/ReadVariableOp&#45;&gt;sequential_1/dense_1_2/MatMul -->
<g id="edge14" class="edge">
<title>sequential_1/dense_1_2/Cast/ReadVariableOp&#45;&gt;sequential_1/dense_1_2/MatMul</title>
<path fill="none" stroke="black" d="M464,-206.96C464,-199.71 464,-189.51 464,-180.44"/>
<polygon fill="black" stroke="black" points="467.5,-180.66 464,-170.67 460.5,-180.67 467.5,-180.66"/>
</g>
<!-- sequential_1/dense_1_2/Cast/ReadVariableOp/resource -->
<g id="node17" class="node">
<title>sequential_1/dense_1_2/Cast/ReadVariableOp/resource</title>
<polygon fill="#b4eeb4" stroke="black" points="496,-303 432,-303 432,-282.25 496,-282.25 496,-303"/>
<text text-anchor="middle" x="464" y="-289.5" font-family="monospace" font-size="10.00">resource</text>
</g>
<!-- sequential_1/dense_1_2/Cast/ReadVariableOp/resource&#45;&gt;sequential_1/dense_1_2/Cast/ReadVariableOp -->
<g id="edge12" class="edge">
<title>sequential_1/dense_1_2/Cast/ReadVariableOp/resource&#45;&gt;sequential_1/dense_1_2/Cast/ReadVariableOp</title>
<path fill="none" stroke="black" d="M464,-281.78C464,-271.05 464,-253.57 464,-239.72"/>
<polygon fill="black" stroke="black" points="467.5,-239.83 464,-229.83 460.5,-239.83 467.5,-239.83"/>
</g>
<!-- sequential_1/flatten_1/Reshape/shape -->
<g id="node18" class="node">
<title>sequential_1/flatten_1/Reshape/shape</title>
<polygon fill="#b4eeb4" stroke="black" points="458,-550.25 404,-550.25 404,-529.5 458,-529.5 458,-550.25"/>
<text text-anchor="middle" x="431" y="-536.75" font-family="monospace" font-size="10.00">shape</text>
</g>
<!-- sequential_1/flatten_1/Reshape/shape&#45;&gt;sequential_1/flatten_1/Reshape -->
<g id="edge16" class="edge">
<title>sequential_1/flatten_1/Reshape/shape&#45;&gt;sequential_1/flatten_1/Reshape</title>
<path fill="none" stroke="black" d="M422.88,-529.35C408.28,-512.22 377.4,-475.98 358.59,-453.92"/>
<polygon fill="black" stroke="black" points="361.49,-451.92 352.34,-446.58 356.16,-456.46 361.49,-451.92"/>
</g>
</g>
</svg>
