<?xml version="1.0" encoding="UTF-8" standalone="no"?>
<!DOCTYPE svg PUBLIC "-//W3C//DTD SVG 1.1//EN"
 "http://www.w3.org/Graphics/SVG/1.1/DTD/svg11.dtd">
<!-- Generated by graphviz version 12.1.2 (20240928.0832)
 -->
<!-- Pages: 1 -->
<svg width="938pt" height="652pt"
 viewBox="0.00 0.00 937.50 652.30" xmlns="http://www.w3.org/2000/svg" xmlns:xlink="http://www.w3.org/1999/xlink">
<g id="graph0" class="graph" transform="scale(1 1) rotate(0) translate(4 648.3)">
<polygon fill="white" stroke="none" points="-4,4 -4,-648.3 933.5,-648.3 933.5,4 -4,4"/>
<g id="clust1" class="cluster">
<title>cluster_sequential_1sequential_1</title>
<path fill="#e0f3db" stroke="slategray" stroke-width="0.6" d="M20,-36.8C20,-36.8 788,-36.8 788,-36.8 794,-36.8 800,-42.8 800,-48.8 800,-48.8 800,-624.3 800,-624.3 800,-630.3 794,-636.3 788,-636.3 788,-636.3 20,-636.3 20,-636.3 14,-636.3 8,-630.3 8,-624.3 8,-624.3 8,-48.8 8,-48.8 8,-42.8 14,-36.8 20,-36.8"/>
<text text-anchor="middle" x="726" y="-44.75" font-family="monospace" font-size="14.00"> &#160;&#160;&#160;sequential_1</text>
</g>
<g id="clust2" class="cluster">
<title>cluster_sequential_1/dense_1dense_1</title>
<path fill="#ccebc5" stroke="slategray" stroke-width="0.6" d="M28,-233.45C28,-233.45 388,-233.45 388,-233.45 394,-233.45 400,-239.45 400,-245.45 400,-245.45 400,-616.3 400,-616.3 400,-622.3 394,-628.3 388,-628.3 388,-628.3 28,-628.3 28,-628.3 22,-628.3 16,-622.3 16,-616.3 16,-616.3 16,-245.45 16,-245.45 16,-239.45 22,-233.45 28,-233.45"/>
<text text-anchor="middle" x="346.62" y="-241.4" font-family="monospace" font-size="14.00"> &#160;&#160;&#160;dense_1</text>
</g>
<g id="clust3" class="cluster">
<title>cluster_sequential_1/dense_1/AddAdd</title>
<polygon fill="#a8ddb5" stroke="slategray" stroke-width="0.6" points="24,-319.5 24,-562.5 204,-562.5 204,-319.5 24,-319.5"/>
<text text-anchor="middle" x="167.12" y="-327.45" font-family="monospace" font-size="14.00"> &#160;&#160;&#160;Add</text>
</g>
<g id="clust4" class="cluster">
<title>cluster_sequential_1/dense_1/Add/ReadVariableOpReadVariableOp</title>
<polygon fill="#7bccc4" stroke="slategray" stroke-width="0.6" points="32,-402.75 32,-554.5 196,-554.5 196,-402.75 32,-402.75"/>
<text text-anchor="middle" x="113.75" y="-410.7" font-family="monospace" font-size="14.00"> &#160;&#160;&#160;ReadVariableOp</text>
</g>
<g id="clust5" class="cluster">
<title>cluster_sequential_1/dense_1/CastCast</title>
<path fill="#a8ddb5" stroke="slategray" stroke-width="0.6" d="M224,-462C224,-462 380,-462 380,-462 386,-462 392,-468 392,-474 392,-474 392,-608.3 392,-608.3 392,-614.3 386,-620.3 380,-620.3 380,-620.3 224,-620.3 224,-620.3 218,-620.3 212,-614.3 212,-608.3 212,-608.3 212,-474 212,-474 212,-468 218,-462 224,-462"/>
<text text-anchor="middle" x="351" y="-469.95" font-family="monospace" font-size="14.00"> &#160;&#160;&#160;Cast</text>
</g>
<g id="clust6" class="cluster">
<title>cluster_sequential_1/dense_1/Cast/ReadVariableOpReadVariableOp</title>
<polygon fill="#7bccc4" stroke="slategray" stroke-width="0.6" points="220,-495.25 220,-612.3 384,-612.3 384,-495.25 220,-495.25"/>
<text text-anchor="middle" x="301.75" y="-503.2" font-family="monospace" font-size="14.00"> &#160;&#160;&#160;ReadVariableOp</text>
</g>
<g id="clust7" class="cluster">
<title>cluster_sequential_1/dense_1_2dense_1_2</title>
<path fill="#ccebc5" stroke="slategray" stroke-width="0.6" d="M420,-70.05C420,-70.05 780,-70.05 780,-70.05 786,-70.05 792,-76.05 792,-82.05 792,-82.05 792,-382.75 792,-382.75 792,-388.75 786,-394.75 780,-394.75 780,-394.75 420,-394.75 420,-394.75 414,-394.75 408,-388.75 408,-382.75 408,-382.75 408,-82.05 408,-82.05 408,-76.05 414,-70.05 420,-70.05"/>
<text text-anchor="middle" x="730.38" y="-78" font-family="monospace" font-size="14.00"> &#160;&#160;&#160;dense_1_2</text>
</g>
<g id="clust8" class="cluster">
<title>cluster_sequential_1/dense_1_2/AddAdd</title>
<polygon fill="#a8ddb5" stroke="slategray" stroke-width="0.6" points="604,-103.3 604,-311.5 784,-311.5 784,-103.3 604,-103.3"/>
<text text-anchor="middle" x="747.12" y="-111.25" font-family="monospace" font-size="14.00"> &#160;&#160;&#160;Add</text>
</g>
<g id="clust9" class="cluster">
<title>cluster_sequential_1/dense_1_2/Add/ReadVariableOpReadVariableOp</title>
<polygon fill="#7bccc4" stroke="slategray" stroke-width="0.6" points="612,-151.75 612,-303.5 776,-303.5 776,-151.75 612,-151.75"/>
<text text-anchor="middle" x="693.75" y="-159.7" font-family="monospace" font-size="14.00"> &#160;&#160;&#160;ReadVariableOp</text>
</g>
<g id="clust10" class="cluster">
<title>cluster_sequential_1/dense_1_2/CastCast</title>
<path fill="#a8ddb5" stroke="slategray" stroke-width="0.6" d="M428,-211C428,-211 584,-211 584,-211 590,-211 596,-217 596,-223 596,-223 596,-374.75 596,-374.75 596,-380.75 590,-386.75 584,-386.75 584,-386.75 428,-386.75 428,-386.75 422,-386.75 416,-380.75 416,-374.75 416,-374.75 416,-223 416,-223 416,-217 422,-211 428,-211"/>
<text text-anchor="middle" x="555" y="-218.95" font-family="monospace" font-size="14.00"> &#160;&#160;&#160;Cast</text>
</g>
<g id="clust11" class="cluster">
<title>cluster_sequential_1/dense_1_2/Cast/ReadVariableOpReadVariableOp</title>
<polygon fill="#7bccc4" stroke="slategray" stroke-width="0.6" points="424,-244.25 424,-378.75 588,-378.75 588,-244.25 424,-244.25"/>
<text text-anchor="middle" x="505.75" y="-252.2" font-family="monospace" font-size="14.00"> &#160;&#160;&#160;ReadVariableOp</text>
</g>
<g id="clust12" class="cluster">
<title>cluster_sequential_1/flatten_1flatten_1</title>
<path fill="#ccebc5" stroke="slategray" stroke-width="0.6" d="M547,-462C547,-462 646,-462 646,-462 652,-462 658,-468 658,-474 658,-474 658,-608.3 658,-608.3 658,-614.3 652,-620.3 646,-620.3 646,-620.3 547,-620.3 547,-620.3 541,-620.3 535,-614.3 535,-608.3 535,-608.3 535,-474 535,-474 535,-468 541,-462 547,-462"/>
<text text-anchor="middle" x="596.38" y="-469.95" font-family="monospace" font-size="14.00"> &#160;&#160;&#160;flatten_1</text>
</g>
<g id="clust13" class="cluster">
<title>cluster_sequential_1/flatten_1/ReshapeReshape</title>
<polygon fill="#a8ddb5" stroke="slategray" stroke-width="0.6" points="543,-495.25 543,-612.3 649,-612.3 649,-495.25 543,-495.25"/>
<text text-anchor="middle" x="595.62" y="-503.2" font-family="monospace" font-size="14.00"> &#160;&#160;&#160;Reshape</text>
</g>
<!-- Identity -->
<g id="node1" class="node">
<title>Identity</title>
<polygon fill="#c1ffc1" stroke="black" points="683,-28.8 607,-28.8 607,0 683,0 683,-28.8"/>
<text text-anchor="middle" x="645" y="-10.12" font-family="monospace" font-size="12.00">Identity</text>
</g>
<!-- model_inputs_0 -->
<g id="node2" class="node">
<title>model_inputs_0</title>
<polygon fill="lightblue" stroke="black" points="929.5,-604.3 808.5,-604.3 808.5,-575.5 929.5,-575.5 929.5,-604.3"/>
<text text-anchor="middle" x="869" y="-585.62" font-family="monospace" font-size="12.00">model_inputs_0</text>
</g>
<!-- sequential_1/flatten_1/Reshape -->
<g id="node16" class="node">
<title>sequential_1/flatten_1/Reshape</title>
<polygon fill="none" stroke="none" points="624.8,-535.7 567.2,-535.7 567.2,-528.5 624.8,-528.5 624.8,-535.7"/>
</g>
<!-- model_inputs_0&#45;&gt;sequential_1/flatten_1/Reshape -->
<g id="edge15" class="edge">
<title>model_inputs_0&#45;&gt;sequential_1/flatten_1/Reshape</title>
<path fill="none" stroke="black" d="M808.07,-576.45C748.7,-564.31 661.47,-546.48 619.83,-537.97"/>
<polygon fill="black" stroke="black" points="620.66,-534.57 610.16,-535.99 619.26,-541.43 620.66,-534.57"/>
</g>
<!-- sequential_1/dense_1/Add -->
<g id="node3" class="node">
<title>sequential_1/dense_1/Add</title>
<polygon fill="none" stroke="none" points="195.8,-359.95 138.2,-359.95 138.2,-352.75 195.8,-352.75 195.8,-359.95"/>
</g>
<!-- sequential_1/dense_1/Relu -->
<g id="node9" class="node">
<title>sequential_1/dense_1/Relu</title>
<polygon fill="#c1ffc1" stroke="black" points="297,-295.5 225,-295.5 225,-266.7 297,-266.7 297,-295.5"/>
<text text-anchor="middle" x="261" y="-276.83" font-family="monospace" font-size="12.00">Relu</text>
</g>
<!-- sequential_1/dense_1/Add&#45;&gt;sequential_1/dense_1/Relu -->
<g id="edge8" class="edge">
<title>sequential_1/dense_1/Add&#45;&gt;sequential_1/dense_1/Relu</title>
<path fill="none" stroke="black" d="M170.13,-352.91C179.98,-345.23 211.11,-320.98 234.2,-302.99"/>
<polygon fill="black" stroke="black" points="236.28,-305.8 242.01,-296.89 231.98,-300.28 236.28,-305.8"/>
</g>
<!-- sequential_1/dense_1/Add/ReadVariableOp -->
<g id="node4" class="node">
<title>sequential_1/dense_1/Add/ReadVariableOp</title>
<polygon fill="none" stroke="none" points="183.8,-443.2 126.2,-443.2 126.2,-436 183.8,-436 183.8,-443.2"/>
</g>
<!-- sequential_1/dense_1/Add/ReadVariableOp&#45;&gt;sequential_1/dense_1/Add -->
<g id="edge3" class="edge">
<title>sequential_1/dense_1/Add/ReadVariableOp&#45;&gt;sequential_1/dense_1/Add</title>
<path fill="none" stroke="black" d="M155.35,-436.26C156.74,-426.79 162.04,-390.95 164.99,-370.99"/>
<polygon fill="black" stroke="black" points="168.41,-371.76 166.41,-361.36 161.48,-370.74 168.41,-371.76"/>
</g>
<!-- sequential_1/dense_1/Add/ReadVariableOp/resource -->
<g id="node5" class="node">
<title>sequential_1/dense_1/Add/ReadVariableOp/resource</title>
<polygon fill="lightblue" stroke="black" points="188,-546.5 112,-546.5 112,-517.7 188,-517.7 188,-546.5"/>
<text text-anchor="middle" x="150" y="-527.83" font-family="monospace" font-size="12.00">resource</text>
</g>
<!-- sequential_1/dense_1/Add/ReadVariableOp/resource&#45;&gt;sequential_1/dense_1/Add/ReadVariableOp -->
<g id="edge4" class="edge">
<title>sequential_1/dense_1/Add/ReadVariableOp/resource&#45;&gt;sequential_1/dense_1/Add/ReadVariableOp</title>
<path fill="none" stroke="black" d="M150.76,-517.35C151.7,-500.37 153.28,-471.64 154.23,-454.56"/>
<polygon fill="black" stroke="black" points="157.72,-454.83 154.78,-444.65 150.73,-454.44 157.72,-454.83"/>
</g>
<!-- sequential_1/dense_1/Cast/ReadVariableOp -->
<g id="node6" class="node">
<title>sequential_1/dense_1/Cast/ReadVariableOp</title>
<polygon fill="none" stroke="none" points="329.8,-535.7 272.2,-535.7 272.2,-528.5 329.8,-528.5 329.8,-535.7"/>
</g>
<!-- sequential_1/dense_1/MatMul -->
<g id="node8" class="node">
<title>sequential_1/dense_1/MatMul</title>
<polygon fill="#c1ffc1" stroke="black" points="337,-454 265,-454 265,-425.2 337,-425.2 337,-454"/>
<text text-anchor="middle" x="301" y="-435.33" font-family="monospace" font-size="12.00">MatMul</text>
</g>
<!-- sequential_1/dense_1/Cast/ReadVariableOp&#45;&gt;sequential_1/dense_1/MatMul -->
<g id="edge7" class="edge">
<title>sequential_1/dense_1/Cast/ReadVariableOp&#45;&gt;sequential_1/dense_1/MatMul</title>
<path fill="none" stroke="black" d="M301,-528.86C301,-520.23 301,-488.45 301,-465.5"/>
<polygon fill="black" stroke="black" points="304.5,-465.67 301,-455.67 297.5,-465.67 304.5,-465.67"/>
</g>
<!-- sequential_1/dense_1/Cast/ReadVariableOp/resource -->
<g id="node7" class="node">
<title>sequential_1/dense_1/Cast/ReadVariableOp/resource</title>
<polygon fill="lightblue" stroke="black" points="339,-604.3 263,-604.3 263,-575.5 339,-575.5 339,-604.3"/>
<text text-anchor="middle" x="301" y="-585.62" font-family="monospace" font-size="12.00">resource</text>
</g>
<!-- sequential_1/dense_1/Cast/ReadVariableOp/resource&#45;&gt;sequential_1/dense_1/Cast/ReadVariableOp -->
<g id="edge5" class="edge">
<title>sequential_1/dense_1/Cast/ReadVariableOp/resource&#45;&gt;sequential_1/dense_1/Cast/ReadVariableOp</title>
<path fill="none" stroke="black" d="M301,-575.11C301,-566.51 301,-555.48 301,-546.88"/>
<polygon fill="black" stroke="black" points="304.5,-547.07 301,-537.07 297.5,-547.07 304.5,-547.07"/>
</g>
<!-- sequential_1/dense_1/MatMul&#45;&gt;sequential_1/dense_1/Add -->
<g id="edge2" class="edge">
<title>sequential_1/dense_1/MatMul&#45;&gt;sequential_1/dense_1/Add</title>
<path fill="none" stroke="black" d="M278.27,-424.82C250.29,-407.85 203.67,-379.59 180.68,-365.64"/>
<polygon fill="black" stroke="black" points="182.69,-362.77 172.33,-360.58 179.06,-368.76 182.69,-362.77"/>
</g>
<!-- sequential_1/dense_1_2/MatMul -->
<g id="node15" class="node">
<title>sequential_1/dense_1_2/MatMul</title>
<polygon fill="#c1ffc1" stroke="black" points="534,-203 462,-203 462,-174.2 534,-174.2 534,-203"/>
<text text-anchor="middle" x="498" y="-184.33" font-family="monospace" font-size="12.00">MatMul</text>
</g>
<!-- sequential_1/dense_1/Relu&#45;&gt;sequential_1/dense_1_2/MatMul -->
<g id="edge13" class="edge">
<title>sequential_1/dense_1/Relu&#45;&gt;sequential_1/dense_1_2/MatMul</title>
<path fill="none" stroke="black" d="M286.73,-266.28C315.93,-251.04 365.32,-226.62 410,-211 422.99,-206.46 437.38,-202.52 450.69,-199.31"/>
<polygon fill="black" stroke="black" points="451.15,-202.79 460.1,-197.12 449.56,-195.98 451.15,-202.79"/>
</g>
<!-- sequential_1/dense_1_2/Add -->
<g id="node10" class="node">
<title>sequential_1/dense_1_2/Add</title>
<polygon fill="none" stroke="none" points="673.8,-143.75 616.2,-143.75 616.2,-136.55 673.8,-136.55 673.8,-143.75"/>
</g>
<!-- sequential_1/dense_1_2/Add&#45;&gt;Identity -->
<g id="edge1" class="edge">
<title>sequential_1/dense_1_2/Add&#45;&gt;Identity</title>
<path fill="none" stroke="black" d="M645,-136.57C645,-124.43 645,-72.38 645,-40.58"/>
<polygon fill="black" stroke="black" points="648.5,-40.64 645,-30.64 641.5,-40.64 648.5,-40.64"/>
</g>
<!-- sequential_1/dense_1_2/Add/ReadVariableOp -->
<g id="node11" class="node">
<title>sequential_1/dense_1_2/Add/ReadVariableOp</title>
<polygon fill="none" stroke="none" points="681.8,-192.2 624.2,-192.2 624.2,-185 681.8,-185 681.8,-192.2"/>
</g>
<!-- sequential_1/dense_1_2/Add/ReadVariableOp&#45;&gt;sequential_1/dense_1_2/Add -->
<g id="edge10" class="edge">
<title>sequential_1/dense_1_2/Add/ReadVariableOp&#45;&gt;sequential_1/dense_1_2/Add</title>
<path fill="none" stroke="black" d="M652.57,-185.1C651.6,-179.44 649.16,-165.3 647.31,-154.57"/>
<polygon fill="black" stroke="black" points="650.8,-154.19 645.65,-144.93 643.9,-155.38 650.8,-154.19"/>
</g>
<!-- sequential_1/dense_1_2/Add/ReadVariableOp/resource -->
<g id="node12" class="node">
<title>sequential_1/dense_1_2/Add/ReadVariableOp/resource</title>
<polygon fill="lightblue" stroke="black" points="696,-295.5 620,-295.5 620,-266.7 696,-266.7 696,-295.5"/>
<text text-anchor="middle" x="658" y="-276.83" font-family="monospace" font-size="12.00">resource</text>
</g>
<!-- sequential_1/dense_1_2/Add/ReadVariableOp/resource&#45;&gt;sequential_1/dense_1_2/Add/ReadVariableOp -->
<g id="edge11" class="edge">
<title>sequential_1/dense_1_2/Add/ReadVariableOp/resource&#45;&gt;sequential_1/dense_1_2/Add/ReadVariableOp</title>
<path fill="none" stroke="black" d="M657.24,-266.35C656.3,-249.37 654.72,-220.64 653.77,-203.56"/>
<polygon fill="black" stroke="black" points="657.27,-203.44 653.22,-193.65 650.28,-203.83 657.27,-203.44"/>
</g>
<!-- sequential_1/dense_1_2/Cast/ReadVariableOp -->
<g id="node13" class="node">
<title>sequential_1/dense_1_2/Cast/ReadVariableOp</title>
<polygon fill="none" stroke="none" points="526.8,-284.7 469.2,-284.7 469.2,-277.5 526.8,-277.5 526.8,-284.7"/>
</g>
<!-- sequential_1/dense_1_2/Cast/ReadVariableOp&#45;&gt;sequential_1/dense_1_2/MatMul -->
<g id="edge14" class="edge">
<title>sequential_1/dense_1_2/Cast/ReadVariableOp&#45;&gt;sequential_1/dense_1_2/MatMul</title>
<path fill="none" stroke="black" d="M498,-277.86C498,-269.23 498,-237.45 498,-214.5"/>
<polygon fill="black" stroke="black" points="501.5,-214.67 498,-204.67 494.5,-214.67 501.5,-214.67"/>
</g>
<!-- sequential_1/dense_1_2/Cast/ReadVariableOp/resource -->
<g id="node14" class="node">
<title>sequential_1/dense_1_2/Cast/ReadVariableOp/resource</title>
<polygon fill="lightblue" stroke="black" points="536,-370.75 460,-370.75 460,-341.95 536,-341.95 536,-370.75"/>
<text text-anchor="middle" x="498" y="-352.08" font-family="monospace" font-size="12.00">resource</text>
</g>
<!-- sequential_1/dense_1_2/Cast/ReadVariableOp/resource&#45;&gt;sequential_1/dense_1_2/Cast/ReadVariableOp -->
<g id="edge12" class="edge">
<title>sequential_1/dense_1_2/Cast/ReadVariableOp/resource&#45;&gt;sequential_1/dense_1_2/Cast/ReadVariableOp</title>
<path fill="none" stroke="black" d="M498,-341.57C498,-328.56 498,-309.15 498,-296.08"/>
<polygon fill="black" stroke="black" points="501.5,-296.2 498,-286.2 494.5,-296.2 501.5,-296.2"/>
</g>
<!-- sequential_1/dense_1_2/MatMul&#45;&gt;sequential_1/dense_1_2/Add -->
<g id="edge9" class="edge">
<title>sequential_1/dense_1_2/MatMul&#45;&gt;sequential_1/dense_1_2/Add</title>
<path fill="none" stroke="black" d="M533.29,-173.75C552.28,-166.61 576.22,-158.09 598,-151.75 605.29,-149.63 613.32,-147.68 620.65,-146.05"/>
<polygon fill="black" stroke="black" points="621.19,-149.51 630.24,-144.01 619.73,-142.66 621.19,-149.51"/>
</g>
<!-- sequential_1/flatten_1/Reshape&#45;&gt;sequential_1/dense_1/MatMul -->
<g id="edge6" class="edge">
<title>sequential_1/flatten_1/Reshape&#45;&gt;sequential_1/dense_1/MatMul</title>
<path fill="none" stroke="black" d="M589.59,-528.55C565.07,-518.86 474.71,-483.76 398,-462 381.98,-457.45 364.24,-453.29 348.37,-449.87"/>
<polygon fill="black" stroke="black" points="349.17,-446.47 338.67,-447.83 347.73,-453.32 349.17,-446.47"/>
</g>
<!-- sequential_1/flatten_1/Reshape/shape -->
<g id="node17" class="node">
<title>sequential_1/flatten_1/Reshape/shape</title>
<polygon fill="none" stroke="black" stroke-dasharray="5,2" points="632,-604.3 560,-604.3 560,-575.5 632,-575.5 632,-604.3"/>
<text text-anchor="middle" x="596" y="-585.62" font-family="monospace" font-size="12.00">shape</text>
</g>
<!-- sequential_1/flatten_1/Reshape/shape&#45;&gt;sequential_1/flatten_1/Reshape -->
<g id="edge16" class="edge">
<title>sequential_1/flatten_1/Reshape/shape&#45;&gt;sequential_1/flatten_1/Reshape</title>
<path fill="none" stroke="black" d="M596,-575.11C596,-566.51 596,-555.48 596,-546.88"/>
<polygon fill="black" stroke="black" points="599.5,-547.07 596,-537.07 592.5,-547.07 599.5,-547.07"/>
</g>
</g>
</svg>
